<svg version="1.1" viewBox="0 0 1e3 1177.2" xmlns="http://www.w3.org/2000/svg"><g stroke-width="44.262"><path d="m459.17 7.6137c-6.3295-5.3114-13.633-7.6573-20.759-7.6131-16.598 0.088524-32.356 13.234-32.356 32.356 0 358.7-388 373.39-388 715.67 0 208.92 199.89 344.58 208.39 350.25 24.964 16.642 57.231-6.9491 48.998-35.764-50.68-177.49-44.926-361.8 91.844-486.79-24.477 90.294-2.877 163.28 71.085 195.37 54.885 23.857 126.72 19.874 186.17 10.933 66.57 58.736 18.944 194.93-21.069 274.91-14.784 29.567 19.475 59.665 46.873 41.385 144.91-96.58 222.37-217.86 230.21-360.43 15.802-287.53-266.32-600.19-421.37-730.23z" fill="#ffdf8e"/><path d="m880.54 737.89c-7.8344 142.57-85.293 263.85-230.21 360.43-27.398 18.28-61.613-11.818-46.873-41.385 40.013-79.981 87.639-216.18 21.069-274.91-59.444 8.9409-131.24 12.88-186.17-10.933v-771.09c7.1262-0.044262 14.474 2.3016 20.759 7.6131 155.05 130.09 437.18 442.71 421.37 730.23z" fill="#ffb64c"/><path d="m997.61 903.7a309.83 309.83 0 0 1-27.885 97.376 304.97 304.97 0 0 1-48.688 73.032 309.83 309.83 0 0 1-230.61 103.13h-380.65a309.83 309.83 0 0 1-230.61-103.13 304.97 304.97 0 0 1-48.688-73.918 309.83 309.83 0 0 1-27.885-97.376 287.7 287.7 0 0 1 0-70.377l29.213-265.57a275.75 275.75 0 0 1 13.279-60.196 309.83 309.83 0 0 1 97.376-143.85 270.44 270.44 0 0 1 41.164-26.557 301.42 301.42 0 0 1 155.8-44.262h321.34a309.83 309.83 0 0 1 294.78 215.56 275.75 275.75 0 0 1 13.279 60.196l29.213 265.57a287.7 287.7 0 0 1-0.44262 70.377z" fill="#aeaeae"/><path d="m133.18 835.98 101.36 101.8 3.541-3.541a940.57 940.57 0 0 1-65.065-288.15l-71.262-70.377-80.114 80.557-19.475 177.05a287.7 287.7 0 0 0 0 70.377l67.721-67.721a44.262 44.262 0 0 1 63.295 0zm69.934 195.64-101.36-101.8-71.262 70.377a304.97 304.97 0 0 0 48.688 73.032 309.83 309.83 0 0 0 230.61 104.02h121.72a504.59 504.59 0 0 1-152.7-160.23l-14.606 14.606a44.262 44.262 0 0 1-61.082 0zm-69.934-549.73 36.295 36.295a1504.9 1504.9 0 0 1 14.164-181.92 270.44 270.44 0 0 0-41.606 29.213 309.83 309.83 0 0 0-97.376 143.85l25.672-25.672a44.262 44.262 0 0 1 62.852-1.7705z" fill="#90837c"/><path d="m173.01 646.09 30.098 30.098a44.262 44.262 0 0 0 62.852 0l101.36-100.47 101.36 101.8a44.262 44.262 0 0 0 62.852 0l101.36-101.8 101.36 101.8a44.262 44.262 0 0 0 62.852 0l101.36-101.8 80.114 80.557-9.7376-88.524a275.75 275.75 0 0 0-13.279-60.196l-25.672-25.672a44.262 44.262 0 0 0-62.852 0l-101.36 101.8-101.36-101.8a44.262 44.262 0 0 0-62.852 0l-101.36 101.8-101.36-101.8a44.262 44.262 0 0 0-62.852 0l-101.36 101.8-65.065-65.508a1272.1 1272.1 0 0 0 3.541 127.92z" fill="#cecece"/><path d="m173.01 646.09c-3.541-44.262-4.4262-88.524-3.541-129.25l-36.295-36.295a44.262 44.262 0 0 0-62.852 0l-25.672 25.672a275.75 275.75 0 0 0-13.279 60.196l-9.7376 88.524 80.114-79.229z" fill="#aeaeae"/><path d="m929.89 835.98a44.262 44.262 0 0 0-62.852 0l-101.36 101.8-101.36-101.8a44.262 44.262 0 0 0-62.852 0l-101.36 101.8-101.36-101.8a44.262 44.262 0 0 0-62.852 0l-97.819 98.262a609.05 609.05 0 0 0 44.262 82.77l88.524-88.524 101.36 101.8a44.262 44.262 0 0 0 62.852 0l97.819-100.47 101.36 101.8a44.262 44.262 0 0 0 62.852 0l101.36-101.8 71.262 70.377a309.83 309.83 0 0 0 27.885-97.376z" fill="#cecece"/><path d="m234.54 937.78-101.36-101.8a44.262 44.262 0 0 0-62.852 0l-67.721 67.721a309.83 309.83 0 0 0 27.885 96.491l71.262-70.377 101.36 101.8a44.262 44.262 0 0 0 62.852 0l14.606-14.606a609.05 609.05 0 0 1-44.262-82.77z" fill="#aeaeae"/></g><g transform="matrix(27.497 0 0 27.497 5.3182 182.41)"><path d="m28.457 17.797c-0.06-0.135-1.499-3.297-4.457-3.297-2.957 0-4.397 3.162-4.457 3.297-0.092 0.207-0.032 0.449 0.145 0.591 0.175 0.142 0.426 0.147 0.61 0.014 0.012-9e-3 1.262-0.902 3.702-0.902 2.426 0 3.674 0.881 3.702 0.901 0.088 0.066 0.194 0.099 0.298 0.099 0.11 0 0.221-0.037 0.312-0.109 0.177-0.142 0.238-0.386 0.145-0.594zm-12 0c-0.06-0.135-1.499-3.297-4.457-3.297-2.957 0-4.397 3.162-4.457 3.297-0.092 0.207-0.032 0.449 0.144 0.591s0.427 0.147 0.61 0.014c0.013-9e-3 1.262-0.902 3.703-0.902 2.426 0 3.674 0.881 3.702 0.901 0.088 0.066 0.194 0.099 0.298 0.099 0.11 0 0.221-0.037 0.312-0.109 0.178-0.142 0.237-0.386 0.145-0.594zm14.543-1.797c-0.396 0-0.772-0.238-0.929-0.629-1.778-4.445-6.223-5.381-6.268-5.391-0.541-0.108-0.893-0.635-0.784-1.177 0.108-0.542 0.635-0.891 1.177-0.784 0.226 0.045 5.556 1.168 7.732 6.608 0.205 0.513-0.045 1.095-0.558 1.3-0.12 0.05-0.246 0.073-0.37 0.073zm-26 0c-0.124 0-0.249-0.023-0.371-0.072-0.513-0.205-0.762-0.787-0.557-1.3 2.176-5.44 7.506-6.563 7.732-6.608 0.543-0.106 1.068 0.243 1.177 0.784 0.108 0.54-0.242 1.066-0.781 1.176-0.185 0.038-4.506 0.98-6.271 5.391-0.157 0.391-0.533 0.629-0.929 0.629zm13 6c-3.623 0-6.027-0.422-9-1-0.679-0.131-2 0-2 2 0 4 4.595 9 11 9 6.404 0 11-5 11-9 0-2-1.321-2.132-2-2-2.973 0.578-5.377 1-9 1z" fill="#48423e"/><path d="m9 23s3 1 9 1 9-1 9-1-2 4-9 4-9-4-9-4z" fill="#fff"/><path d="m10.847 28.229c-0.68 2.677-3.4 4.295-6.077 3.615-2.676-0.679-4.295-3.399-3.616-6.076s6.337-8.708 7.307-8.462c0.97 0.247 3.065 8.247 2.386 10.923zm14.286 0c0.68 2.677 3.4 4.295 6.077 3.615 2.677-0.679 4.296-3.399 3.616-6.076s-6.338-8.708-7.308-8.462c-0.968 0.247-3.064 8.247-2.385 10.923z" fill="#5dadec"/></g></svg>
