<svg version="1.1" viewBox="0 0 1000 1177.2" xmlns="http://www.w3.org/2000/svg"><g stroke-width="44.262"><path d="m459.17 7.6137c-6.3295-5.3114-13.633-7.6573-20.759-7.6131-16.598 0.08852-32.356 13.234-32.356 32.356 0 358.7-388 373.39-388 715.67 0 208.92 199.89 344.58 208.39 350.25 24.964 16.643 57.231-6.9491 48.998-35.764-50.68-177.49-44.926-361.8 91.844-486.79-24.477 90.294-2.877 163.28 71.085 195.37 54.885 23.857 126.72 19.874 186.17 10.933 66.57 58.736 18.944 194.93-21.069 274.91-14.784 29.567 19.475 59.665 46.873 41.385 144.91-96.58 222.37-217.86 230.21-360.43 15.802-287.53-266.32-600.19-421.37-730.23z" fill="#ffdf8e"/><path d="m880.54 737.89c-7.8344 142.57-85.293 263.85-230.21 360.43-27.398 18.28-61.613-11.818-46.873-41.385 40.013-79.981 87.639-216.18 21.069-274.91-59.444 8.9409-131.24 12.88-186.17-10.933v-771.09c7.1262-0.04426 14.474 2.3016 20.759 7.6131 155.05 130.09 437.18 442.71 421.37 730.23z" fill="#ffb64c"/><path d="m997.61 903.7a309.83 309.83 0 0 1-27.885 97.376 304.97 304.97 0 0 1-48.688 73.032 309.83 309.83 0 0 1-230.61 103.13h-380.65a309.83 309.83 0 0 1-230.61-103.13 304.97 304.97 0 0 1-48.688-73.918 309.83 309.83 0 0 1-27.885-97.376 287.7 287.7 0 0 1 0-70.377l29.213-265.57a275.75 275.75 0 0 1 13.279-60.196 309.83 309.83 0 0 1 97.376-143.85 270.44 270.44 0 0 1 41.164-26.557 301.42 301.42 0 0 1 155.8-44.262h321.34a309.83 309.83 0 0 1 294.78 215.56 275.75 275.75 0 0 1 13.279 60.196l29.213 265.57a287.7 287.7 0 0 1-0.44262 70.377z" fill="#aeaeae"/><path d="m133.18 835.98 101.36 101.8 3.541-3.541a940.57 940.57 0 0 1-65.065-288.15l-71.262-70.377-80.114 80.557-19.475 177.05a287.7 287.7 0 0 0 0 70.377l67.721-67.721a44.262 44.262 0 0 1 63.295 0zm69.934 195.64-101.36-101.8-71.262 70.377a304.97 304.97 0 0 0 48.688 73.032 309.83 309.83 0 0 0 230.61 104.02h121.72a504.59 504.59 0 0 1-152.7-160.23l-14.606 14.606a44.262 44.262 0 0 1-61.082 0zm-69.934-549.73 36.295 36.295a1504.9 1504.9 0 0 1 14.164-181.92 270.44 270.44 0 0 0-41.606 29.213 309.83 309.83 0 0 0-97.376 143.85l25.672-25.672a44.262 44.262 0 0 1 62.852-1.7705z" fill="#90837c"/><path d="m173.01 646.09 30.098 30.098a44.262 44.262 0 0 0 62.852 0l101.36-100.47 101.36 101.8a44.262 44.262 0 0 0 62.852 0l101.36-101.8 101.36 101.8a44.262 44.262 0 0 0 62.852 0l101.36-101.8 80.114 80.557-9.7376-88.524a275.75 275.75 0 0 0-13.279-60.196l-25.672-25.672a44.262 44.262 0 0 0-62.852 0l-101.36 101.8-101.36-101.8a44.262 44.262 0 0 0-62.852 0l-101.36 101.8-101.36-101.8a44.262 44.262 0 0 0-62.852 0l-101.36 101.8-65.065-65.508a1272.1 1272.1 0 0 0 3.541 127.92z" fill="#cecece"/><path d="m173.01 646.09c-3.541-44.262-4.4262-88.524-3.541-129.25l-36.295-36.295a44.262 44.262 0 0 0-62.852 0l-25.672 25.672a275.75 275.75 0 0 0-13.279 60.196l-9.7376 88.524 80.114-79.229z" fill="#aeaeae"/><path d="m929.89 835.98a44.262 44.262 0 0 0-62.852 0l-101.36 101.8-101.36-101.8a44.262 44.262 0 0 0-62.852 0l-101.36 101.8-101.36-101.8a44.262 44.262 0 0 0-62.852 0l-97.819 98.262a609.05 609.05 0 0 0 44.262 82.77l88.524-88.524 101.36 101.8a44.262 44.262 0 0 0 62.852 0l97.819-100.47 101.36 101.8a44.262 44.262 0 0 0 62.852 0l101.36-101.8 71.262 70.377a309.83 309.83 0 0 0 27.885-97.376z" fill="#cecece"/><path d="m234.54 937.78-101.36-101.8a44.262 44.262 0 0 0-62.852 0l-67.721 67.721a309.83 309.83 0 0 0 27.885 96.491l71.262-70.377 101.36 101.8a44.262 44.262 0 0 0 62.852 0l14.606-14.606a609.05 609.05 0 0 1-44.262-82.77z" fill="#aeaeae"/></g><path d="m655.17 970.94c-0.29017-1.1607-30.205-115.52-144.69-115.52s-144.4 114.36-144.69 115.52c-1.3981 5.6189 1.1607 11.37 6.1201 14.351 4.9594 2.9545 11.422 2.2687 15.722-1.5828 0.23742-0.21104 26.723-22.766 122.85-22.766 94.703 0 121.8 21.895 122.82 22.766 2.5061 2.3742 5.7772 3.614 9.0746 3.614 2.2159 0 4.4582-0.55397 6.4894-1.6883 5.1704-2.9545 7.7556-8.9427 6.3048-14.694zm-205.29-297.59c-0.34293 0.23742-33.291 23.795-97.684 23.795-64.419 0-97.341-23.557-97.605-23.742-5.1177-3.8514-12.293-3.4821-16.989 0.97605-4.6692 4.4054-5.487 11.554-1.8993 16.909 1.6092 2.3742 39.965 58.616 116.49 58.616 76.501 0 114.88-56.242 116.49-58.642 3.5349-5.3287 2.7435-12.398-1.873-16.83-4.6428-4.4582-11.844-4.8539-16.936-1.0816zm333.49 1.108c-4.6164-4.4582-11.792-4.9066-16.962-1.108-0.31656 0.23742-33.291 23.795-97.658 23.795-64.393 0-97.341-23.557-97.605-23.742-5.0913-3.8514-12.293-3.4821-16.989 0.97605-4.6692 4.4054-5.4606 11.554-1.8993 16.909 1.6092 2.3742 39.965 58.616 116.49 58.616 76.501 0 114.88-56.242 116.49-58.642 3.5613-5.3023 2.7435-12.372-1.873-16.804zm70.065-43.263c-8.0458 0-15.933-3.6404-21.13-10.552-69.669-92.883-159.89-94.941-163.71-94.967-14.509-0.15828-26.221-12.029-26.142-26.512 0.0791-14.535 11.792-26.248 26.301-26.248 4.8539 0 119.68 1.319 205.76 116.07 8.7581 11.66 6.3839 28.2-5.2759 36.932-4.7484 3.5613-10.288 5.276-15.801 5.276zm-685.93 0c-5.487 0-11.053-1.7147-15.801-5.276-11.66-8.7317-14.008-25.272-5.2759-36.932 86.051-114.75 200.91-116.07 205.76-116.07 14.562 0 26.38 11.818 26.38 26.38 0 14.535-11.739 26.327-26.274 26.38-4.1152 0.0528-94.149 2.2687-163.69 94.967-5.144 6.9115-13.084 10.552-21.104 10.552z" fill="#48423e" stroke-width="26.38"/><path d="m642.38 815.85c163.84 0 342.94 105.52 342.94 237.42 0 105.52-79.139 105.52-79.139 105.52-211.04 0-26.38-237.42-263.8-342.94z" fill="#5dadec" stroke-width="26.38"/></svg>
