<svg version="1.1" viewBox="0 0 1e3 1177.2" xmlns="http://www.w3.org/2000/svg"><g stroke-width="44.262"><path d="m459.17 7.6137c-6.3295-5.3114-13.633-7.6573-20.759-7.6131-16.598 0.088524-32.356 13.234-32.356 32.356 0 358.7-388 373.39-388 715.67 0 208.92 199.89 344.58 208.39 350.25 24.964 16.642 57.231-6.9491 48.998-35.764-50.68-177.49-44.926-361.8 91.844-486.79-24.477 90.294-2.877 163.28 71.085 195.37 54.885 23.857 126.72 19.874 186.17 10.933 66.57 58.736 18.944 194.93-21.069 274.91-14.784 29.567 19.475 59.665 46.873 41.385 144.91-96.58 222.37-217.86 230.21-360.43 15.802-287.53-266.32-600.19-421.37-730.23z" fill="#ffdf8e"/><path d="m880.54 737.89c-7.8344 142.57-85.293 263.85-230.21 360.43-27.398 18.28-61.613-11.818-46.873-41.385 40.013-79.981 87.639-216.18 21.069-274.91-59.444 8.9409-131.24 12.88-186.17-10.933v-771.09c7.1262-0.044262 14.474 2.3016 20.759 7.6131 155.05 130.09 437.18 442.71 421.37 730.23z" fill="#ffb64c"/><path d="m997.61 903.7a309.83 309.83 0 0 1-27.885 97.376 304.97 304.97 0 0 1-48.688 73.032 309.83 309.83 0 0 1-230.61 103.13h-380.65a309.83 309.83 0 0 1-230.61-103.13 304.97 304.97 0 0 1-48.688-73.918 309.83 309.83 0 0 1-27.885-97.376 287.7 287.7 0 0 1 0-70.377l29.213-265.57a275.75 275.75 0 0 1 13.279-60.196 309.83 309.83 0 0 1 97.376-143.85 270.44 270.44 0 0 1 41.164-26.557 301.42 301.42 0 0 1 155.8-44.262h321.34a309.83 309.83 0 0 1 294.78 215.56 275.75 275.75 0 0 1 13.279 60.196l29.213 265.57a287.7 287.7 0 0 1-0.44262 70.377z" fill="#aeaeae"/><path d="m133.18 835.98 101.36 101.8 3.541-3.541a940.57 940.57 0 0 1-65.065-288.15l-71.262-70.377-80.114 80.557-19.475 177.05a287.7 287.7 0 0 0 0 70.377l67.721-67.721a44.262 44.262 0 0 1 63.295 0zm69.934 195.64-101.36-101.8-71.262 70.377a304.97 304.97 0 0 0 48.688 73.032 309.83 309.83 0 0 0 230.61 104.02h121.72a504.59 504.59 0 0 1-152.7-160.23l-14.606 14.606a44.262 44.262 0 0 1-61.082 0zm-69.934-549.73 36.295 36.295a1504.9 1504.9 0 0 1 14.164-181.92 270.44 270.44 0 0 0-41.606 29.213 309.83 309.83 0 0 0-97.376 143.85l25.672-25.672a44.262 44.262 0 0 1 62.852-1.7705z" fill="#90837c"/><path d="m173.01 646.09 30.098 30.098a44.262 44.262 0 0 0 62.852 0l101.36-100.47 101.36 101.8a44.262 44.262 0 0 0 62.852 0l101.36-101.8 101.36 101.8a44.262 44.262 0 0 0 62.852 0l101.36-101.8 80.114 80.557-9.7376-88.524a275.75 275.75 0 0 0-13.279-60.196l-25.672-25.672a44.262 44.262 0 0 0-62.852 0l-101.36 101.8-101.36-101.8a44.262 44.262 0 0 0-62.852 0l-101.36 101.8-101.36-101.8a44.262 44.262 0 0 0-62.852 0l-101.36 101.8-65.065-65.508a1272.1 1272.1 0 0 0 3.541 127.92z" fill="#cecece"/><path d="m173.01 646.09c-3.541-44.262-4.4262-88.524-3.541-129.25l-36.295-36.295a44.262 44.262 0 0 0-62.852 0l-25.672 25.672a275.75 275.75 0 0 0-13.279 60.196l-9.7376 88.524 80.114-79.229z" fill="#aeaeae"/><path d="m929.89 835.98a44.262 44.262 0 0 0-62.852 0l-101.36 101.8-101.36-101.8a44.262 44.262 0 0 0-62.852 0l-101.36 101.8-101.36-101.8a44.262 44.262 0 0 0-62.852 0l-97.819 98.262a609.05 609.05 0 0 0 44.262 82.77l88.524-88.524 101.36 101.8a44.262 44.262 0 0 0 62.852 0l97.819-100.47 101.36 101.8a44.262 44.262 0 0 0 62.852 0l101.36-101.8 71.262 70.377a309.83 309.83 0 0 0 27.885-97.376z" fill="#cecece"/><path d="m500.11 1044.5a163.33 163.33 0 0 1-146.95-103.57l-3.9836-9.295a47.36 47.36 0 0 1 18.147-59.311 36.737 36.737 0 0 1 52.229 19.475l3.9836 9.295a81.885 81.885 0 0 0 154.92 0l3.9836-9.295a36.737 36.737 0 0 1 50.459-19.475 47.36 47.36 0 0 1 17.262 59.311l-3.9836 9.295a163.33 163.33 0 0 1-146.06 103.57z" fill="#90837c"/><path d="m500.11 1000.2a186.79 186.79 0 0 1-167.75-103.57l-4.4262-9.295a44.262 44.262 0 0 1 78.786-39.836l4.8688 9.295a98.704 98.704 0 0 0 177.05 0l4.8688-9.295a44.262 44.262 0 1 1 78.786 39.836l-4.4262 9.295a186.79 186.79 0 0 1-167.75 103.57z" fill="#48423e"/><path d="m234.54 937.78-101.36-101.8a44.262 44.262 0 0 0-62.852 0l-67.721 67.721a309.83 309.83 0 0 0 27.885 96.491l71.262-70.377 101.36 101.8a44.262 44.262 0 0 0 62.852 0l14.606-14.606a609.05 609.05 0 0 1-44.262-82.77z" fill="#aeaeae"/></g><path d="m462.14 420.59c-24.078-68.14-98.777-103.91-166.94-79.885-41.372 14.575-70.663 47.959-82.071 87.004-33.383-23.237-77.11-30.833-118.43-16.257-68.112 24.05-103.93 98.805-79.857 166.94 3.4196 9.6422 7.9604 18.584 13.23 26.852 54.686 100.4 212.69 170.98 308.35 171.85 73.914-60.74 152.65-214.85 132.24-327.3-1.0651-9.7543-3.1674-19.565-6.5309-29.207zm75.68 0c24.078-68.14 98.805-103.91 166.94-79.885 41.372 14.575 70.663 47.959 82.099 87.004 33.383-23.237 77.11-30.833 118.43-16.257 68.112 24.05 103.91 98.805 79.885 166.94-3.4477 9.6422-7.9605 18.584-13.258 26.852-54.686 100.4-212.69 170.98-308.38 171.85-73.914-60.74-152.62-214.85-132.22-327.3 1.0371-9.7543 3.1393-19.565 6.5029-29.207z" fill="#dd2e44" stroke-width="28.03"/></svg>
