<svg version="1.1" viewBox="0 0 1000 1185.2" xmlns="http://www.w3.org/2000/svg"><g stroke-width="44.262"><path d="m459.17 7.6137c-6.3295-5.3114-13.633-7.6573-20.759-7.6131-16.598 0.08852-32.356 13.234-32.356 32.356 0 358.7-388 373.39-388 715.67 0 208.92 199.89 344.58 208.39 350.25 24.964 16.643 57.231-6.9491 48.998-35.764-50.68-177.49-44.926-361.8 91.844-486.79-24.477 90.294-2.877 163.28 71.085 195.37 54.885 23.857 126.72 19.874 186.17 10.933 66.57 58.736 18.944 194.93-21.069 274.91-14.784 29.567 19.475 59.665 46.873 41.385 144.91-96.58 222.37-217.86 230.21-360.43 15.802-287.53-266.32-600.19-421.37-730.23z" fill="#ffdf8e"/><path d="m880.54 737.89c-7.8344 142.57-85.293 263.85-230.21 360.43-27.398 18.28-61.613-11.818-46.873-41.385 40.013-79.981 87.639-216.18 21.069-274.91-59.444 8.9409-131.24 12.88-186.17-10.933v-771.09c7.1262-0.04426 14.474 2.3016 20.759 7.6131 155.05 130.09 437.18 442.71 421.37 730.23z" fill="#ffb64c"/><path d="m997.61 903.7a309.83 309.83 0 0 1-27.885 97.376 304.97 304.97 0 0 1-48.688 73.032 309.83 309.83 0 0 1-230.61 103.13h-380.65a309.83 309.83 0 0 1-230.61-103.13 304.97 304.97 0 0 1-48.688-73.918 309.83 309.83 0 0 1-27.885-97.376 287.7 287.7 0 0 1 0-70.377l29.213-265.57a275.75 275.75 0 0 1 13.279-60.196 309.83 309.83 0 0 1 97.376-143.85 270.44 270.44 0 0 1 41.164-26.557 301.42 301.42 0 0 1 155.8-44.262h321.34a309.83 309.83 0 0 1 294.78 215.56 275.75 275.75 0 0 1 13.279 60.196l29.213 265.57a287.7 287.7 0 0 1-0.44262 70.377z" fill="#aeaeae"/><path d="m133.18 835.98 101.36 101.8 3.541-3.541a940.57 940.57 0 0 1-65.065-288.15l-71.262-70.377-80.114 80.557-19.475 177.05a287.7 287.7 0 0 0 0 70.377l67.721-67.721a44.262 44.262 0 0 1 63.295 0zm69.934 195.64-101.36-101.8-71.262 70.377a304.97 304.97 0 0 0 48.688 73.032 309.83 309.83 0 0 0 230.61 104.02h121.72a504.59 504.59 0 0 1-152.7-160.23l-14.606 14.606a44.262 44.262 0 0 1-61.082 0zm-69.934-549.73 36.295 36.295a1504.9 1504.9 0 0 1 14.164-181.92 270.44 270.44 0 0 0-41.606 29.213 309.83 309.83 0 0 0-97.376 143.85l25.672-25.672a44.262 44.262 0 0 1 62.852-1.7705z" fill="#90837c"/><path d="m173.01 646.09 30.098 30.098a44.262 44.262 0 0 0 62.852 0l101.36-100.47 101.36 101.8a44.262 44.262 0 0 0 62.852 0l101.36-101.8 101.36 101.8a44.262 44.262 0 0 0 62.852 0l101.36-101.8 80.114 80.557-9.7376-88.524a275.75 275.75 0 0 0-13.279-60.196l-25.672-25.672a44.262 44.262 0 0 0-62.852 0l-101.36 101.8-101.36-101.8a44.262 44.262 0 0 0-62.852 0l-101.36 101.8-101.36-101.8a44.262 44.262 0 0 0-62.852 0l-101.36 101.8-65.065-65.508a1272.1 1272.1 0 0 0 3.541 127.92z" fill="#cecece"/><path d="m173.01 646.09c-3.541-44.262-4.4262-88.524-3.541-129.25l-36.295-36.295a44.262 44.262 0 0 0-62.852 0l-25.672 25.672a275.75 275.75 0 0 0-13.279 60.196l-9.7376 88.524 80.114-79.229z" fill="#aeaeae"/><path d="m929.89 835.98a44.262 44.262 0 0 0-62.852 0l-101.36 101.8-101.36-101.8a44.262 44.262 0 0 0-62.852 0l-101.36 101.8-101.36-101.8a44.262 44.262 0 0 0-62.852 0l-97.819 98.262a609.05 609.05 0 0 0 44.262 82.77l88.524-88.524 101.36 101.8a44.262 44.262 0 0 0 62.852 0l97.819-100.47 101.36 101.8a44.262 44.262 0 0 0 62.852 0l101.36-101.8 71.262 70.377a309.83 309.83 0 0 0 27.885-97.376z" fill="#cecece"/><path d="m234.54 937.78-101.36-101.8a44.262 44.262 0 0 0-62.852 0l-67.721 67.721a309.83 309.83 0 0 0 27.885 96.491l71.262-70.377 101.36 101.8a44.262 44.262 0 0 0 62.852 0l14.606-14.606a609.05 609.05 0 0 1-44.262-82.77z" fill="#aeaeae"/></g><g transform="translate(715.85 166.99)" stroke-width="25.538"><path d="m-113.7 788.38c0 70.561-45.738 76.614-102.15 76.614-56.439 0-102.15-6.0525-102.15-76.614 0-70.51 45.713-153.23 102.15-153.23 56.413 0 102.15 82.717 102.15 153.23zm204.3-306.46c-3.1667 0-6.3845-0.58737-9.4746-1.8387-133.54-53.4-188.27-133.84-190.54-137.24-7.8402-11.747-4.6734-27.607 7.074-35.421 11.722-7.8146 27.504-4.699 35.37 6.9974 0.48522 0.68952 49.288 71.123 167.04 118.22 13.101 5.2608 19.485 20.098 14.25 33.199-4.0095 10.011-13.612 16.089-23.725 16.089zm-612.91 0c-10.139 0-19.715-6.078-23.725-16.063-5.2353-13.101 1.1237-27.964 14.225-33.199 117.78-47.092 166.58-117.53 167.07-118.22 7.8657-11.645 23.725-14.735 35.421-6.8952 11.671 7.8657 14.838 23.623 7.0229 35.319-2.2729 3.3965-57.001 83.841-190.51 137.24-3.1156 1.2258-6.3334 1.8132-9.5001 1.8132z" fill="#48423e"/><path d="m-62.625 507.47h102.15v485.22l-102.15-1.1748zm-408.61 485.22 102.15-1.1748v-484.05h-102.15z" fill="#5dadec"/><path d="m-292.49 558.54c-3.8307 0-7.738-0.86829-11.39-2.6815-89.689-44.845-180.55-0.45968-181.45 0-12.641 6.359-27.964 1.1748-34.272-11.415-6.3079-12.616-1.2003-27.964 11.415-34.272 4.6479-2.2984 114.87-56.107 227.16 0 12.616 6.3079 17.723 21.656 11.415 34.272-4.4947 8.9383-13.51 14.097-22.882 14.097zm357.53 0c-3.8307 0-7.738-0.86829-11.39-2.6815-89.715-44.845-180.55-0.45968-181.45 0-12.616 6.3334-27.939 1.2003-34.272-11.415-6.3079-12.616-1.2003-27.964 11.415-34.272 4.6479-2.2984 114.95-56.081 227.16 0 12.616 6.3079 17.723 21.656 11.415 34.272-4.4947 8.9383-13.51 14.097-22.882 14.097z" fill="#48423e"/><ellipse cx="-215.85" cy="967.15" rx="459.68" ry="51.076" fill="#5dadec"/><ellipse cx="-215.85" cy="788.38" rx="76.614" ry="51.076" fill="#e75a70"/></g></svg>
