<svg fill="#00dd00" version="1.1" viewBox="0 0 1000 321.29" xmlns="http://www.w3.org/2000/svg"><path d="m158.85 50.112h-62.025v-50.112h97.011l50.301 50.112v51.056l-25.151 25.151 25.151 25.151v49.357l-50.301 50.112h-97.011v-50.112h62.025v-53.518h-62.025v-43.682h62.025zm-158.85-50.112h83.585v250.94h-83.585zm504.35 200.83-50.112 50.112h-55.976v-46.899h20.801v-103.82h-20.801v-50.112h55.976l50.112 50.112zm-141.07 3.2133h21.748v46.899h-56.165l-50.112-50.112v-100.6l50.112-50.112h56.165v50.112h-21.745zm311.43-103.82h-35.553v-21.937l27.986-28.175h50.679l40.658 46.899v52.004h-83.77zm-132.56 150.71v-200.83h83.585v200.83zm374.26-150.71h-37.063v-50.112h70.536l50.112 50.112v170.57l-50.112 50.49h-110.25l-25.151-25.339v-18.532h101.93zm-13.238 103.82v22.126l-24.962 24.773h-45.574l-50.112-50.112v-100.6l50.112-50.112h33.472v153.93z" stroke-width="3.6308"/></svg>
