<svg width="100mm" height="100mm" version="1.1" viewBox="0 0 100 100" xmlns="http://www.w3.org/2000/svg"><circle cx="50" cy="50" r="50" fill="#7289da"/><g transform="matrix(.92505 0 0 .92505 71.713 13.992)" fill="#fff" stroke-width="2.0826" aria-label="D"><path d="m-43.302 5.9976h12.813c8.2709 0 13.857 0.37965 16.759 1.1389 2.9287 0.7593 5.1524 2.0067 6.671 3.7423 1.5186 1.7355 2.4677 3.6745 2.8474 5.8168 0.37965 2.1152 0.56947 6.2913 0.56947 12.528v23.064c0 5.9117-0.28474 9.8709-0.85421 11.878-0.54236 1.9796-1.505 3.5389-2.888 4.6778-1.383 1.1118-3.0914 1.8982-5.1253 2.3592-2.0338 0.43388-5.0981 0.65083-9.1929 0.65083h-21.599z"/></g><path d="m50.018 51.761a0.017795 0.017795 0 0 1-0.0178 0.01779 0.017795 0.017795 0 0 1-0.0178-0.01779 0.017795 0.017795 0 0 1 0.0178-0.01779 0.017795 0.017795 0 0 1 0.0178 0.01779z" fill="#fffffe" stroke="#000" stroke-width=".26458"/><path d="m50.018 51.761a0.017795 0.017795 0 0 1-0.0178 0.01779 0.017795 0.017795 0 0 1-0.0178-0.01779 0.017795 0.017795 0 0 1 0.0178-0.01779 0.017795 0.017795 0 0 1 0.0178 0.01779z" fill="#fffffe" stroke="#000" stroke-width=".26458"/><text x="38.388977" y="68.802139" fill="#7289da" font-family="Impact" font-size="47.894px" stroke-width="1.1974" style="line-height:1.25" xml:space="preserve"><tspan x="38.388977" y="68.802139" fill="#7289da" font-family="Impact" stroke-width="1.1974">λ</tspan></text><g transform="translate(4.58 -.28636)" fill="#fff" stroke-width="2.2463" aria-label="("><path d="m28.682 89.464v1.6233c-4.4165-2.2229-8.1017-4.8259-11.056-7.8092-4.2117-4.241-7.4583-9.2424-9.7396-15.004-2.2814-5.7619-3.422-11.743-3.422-17.944 0-9.0669 2.2375-17.33 6.7124-24.788 4.475-7.4875 10.31-12.84 17.505-16.057v1.8426c-3.5975 1.9889-6.5516 4.7089-8.8622 8.1602s-4.0362 7.8239-5.1769 13.118c-1.1407 5.2939-1.711 10.822-1.711 16.584 0 6.2591 0.48259 11.948 1.4478 17.066 0.76045 4.0362 1.6818 7.2682 2.7639 9.6957 1.0822 2.4568 2.53 4.8113 4.3433 7.0634 1.8426 2.2521 4.241 4.4018 7.195 6.4492zm33.475 0v1.6233c4.4165-2.2229 8.1017-4.8259 11.056-7.8092 4.2117-4.241 7.4583-9.2424 9.7396-15.004s3.422-11.743 3.422-17.944c0-9.0669-2.2375-17.33-6.7124-24.788-4.475-7.4875-10.31-12.84-17.505-16.057v1.8426c3.5975 1.9889 6.5516 4.7089 8.8622 8.1602 2.3106 3.4513 4.0362 7.8239 5.1769 13.118 1.1407 5.2939 1.711 10.822 1.711 16.584 0 6.2591-0.48259 11.948-1.4478 17.066-0.76045 4.0362-1.6818 7.2682-2.7639 9.6957-1.0822 2.4568-2.53 4.8113-4.3433 7.0634-1.8426 2.2521-4.241 4.4018-7.195 6.4492z"/></g></svg>
