<svg width="100mm" height="100mm" version="1.1" viewBox="0 0 100 100" xmlns="http://www.w3.org/2000/svg"><g transform="translate(-20.033 -117.93)"><ellipse cx="70.033" cy="167.93" rx="46" ry="46" fill="#fff" stroke="#fff" stroke-width="8.0006"/><path d="m66.017 217.77c-12.671-1.0056-25.159-7.2396-33.446-16.697-11.9-13.58-15.626-32.103-9.9-49.219 4.895-14.632 16.949-26.591 31.657-31.409 17.918-5.8692 37.432-1.3025 50.766 11.88 4.2558 4.2075 7.3303 8.5163 9.9506 13.946 5.7208 11.854 6.5421 24.958 2.3536 37.554-7.2173 21.706-28.492 35.761-51.381 33.944zm12.155-1.4223c21.231-3.8067 37.346-20.311 40.415-41.39 0.52468-3.6047 0.53071-10.63 0.0121-14.071-2.8563-18.95-16.139-34.406-34.294-39.905-10.203-3.0906-21.989-2.7037-31.683 1.04-14.864 5.7401-26.064 18.195-30.061 33.428-2.9544 11.26-1.7212 23.604 3.3954 33.985 7.3397 14.891 21.114 24.824 37.683 27.174 3.3647 0.47726 11.2 0.33657 14.533-0.26096zm-7.625-3.3477c-0.0934-0.89323-0.16975-3.9846-0.16975-6.8696 0-4.4866 0.0573-5.2456 0.39634-5.2456 0.33661 0 0.39634 0.67071 0.39634 4.4511 0 2.4481 0.0773 5.5394 0.17168 6.8696 0.14586 2.0548 0.11178 2.4186-0.22658 2.4186-0.29327 0-0.44303-0.42819-0.56803-1.6241zm-32.617-11.655c-0.23229-0.27988 0.75988-1.4087 4.6806-5.3251 3.2406-3.237 5.0433-4.86 5.1703-4.6546 0.12329 0.19947-1.5358 2.0792-4.5153 5.1158-2.5906 2.6402-4.7846 4.8947-4.8755 5.0098-0.0909 0.11515-0.2979 0.0495-0.46002-0.14581zm60.586-5.0678c-4.1128-3.9753-4.9574-4.9134-4.6816-5.2003 0.27617-0.28731 1.2217 0.5352 5.2775 4.5908 3.2334 3.2332 4.8514 5.0305 4.6816 5.2003-0.16979 0.16977-1.9938-1.4169-5.2775-4.5908zm-48.22-28.261v-28.958l11.692 2e-3c6.8286 1e-3 12.407 0.11659 13.41 0.27749 8.4375 1.3534 15.741 7.687 18.56 16.095l0.84383 2.5167 0.0933 8.9421c0.0784 7.519 0.0241 9.285-0.34181 11.097-0.8938 4.4272-2.8379 8.117-6.0399 11.463-3.191 3.3348-6.8237 5.4844-11.31 6.6926-2.0986 0.56515-2.785 0.5987-14.555 0.711l-12.353 0.11788zm16.255 8.0225c2.4964-5.3576 4.2663-8.8559 4.3779-8.6531 0.10306 0.18725 1.581 4.0263 3.2844 8.5312 1.7034 4.5049 3.206 8.3988 3.3392 8.6531 0.19764 0.37744 0.60443 0.46238 2.2145 0.46238 1.4423 0 1.9724-0.0924 1.9724-0.34349 0-0.86614-11.376-30.671-12.038-31.538-1.0616-1.3917-2.6861-2.0159-5.5996-2.1516l-2.4441-0.1138v3.4979h1.3296c1.6466 0 2.9153 0.50856 3.5019 1.4037 0.2462 0.37574 0.86795 1.8051 1.3817 3.1764l0.93402 2.4932-5.2911 11.573c-2.9101 6.365-5.2911 11.67-5.2911 11.788 0 0.1184 0.93093 0.21527 2.0687 0.21527h2.0687zm-42.678-7.52c0-0.34232 0.95416-0.39632 7.0021-0.39632 6.0479 0 7.0021 0.054 7.0021 0.39632 0 0.34233-0.95416 0.39633-7.0021 0.39633-6.0479 0-7.0021-0.054-7.0021-0.39633zm79.533-0.52843c0-0.34212 0.93949-0.39633 6.87-0.39633s6.87 0.0542 6.87 0.39633-0.93948 0.39632-6.87 0.39632-6.87-0.0542-6.87-0.39632zm-61.541-27.371c-3.6449-3.5626-4.7882-4.8296-4.5621-5.0556 0.22608-0.22607 1.5111 0.88578 5.128 4.4369 2.6545 2.6062 4.8263 4.8476 4.8263 4.9808 0 0.74204-0.98778-0.057-5.3922-4.362zm51.662 4.3008c-0.0732-0.11845 2.1042-2.4503 4.8388-5.1818 3.3235-3.3199 5.0381-4.8593 5.1717-4.6431 0.13017 0.21063-1.4922 2.0172-4.6535 5.1818-2.6694 2.6722-4.9367 4.8585-5.0386 4.8585-0.10188 0-0.24515-0.0969-0.31835-0.21536zm-22.358-16.562c0-6.0476 0.054-7.0018 0.39634-7.0018s0.39635 0.95411 0.39635 7.0018-0.054 7.0018-0.39635 7.0018c-0.34233 0-0.39634-0.95411-0.39634-7.0018z" fill="#28103d" stroke-width=".26422"/></g></svg>
