<svg version="1.1" viewBox="0 0 1000 1000" xmlns="http://www.w3.org/2000/svg"><g transform="matrix(.14356 0 0 -.14356 -1.0336 1003.9)"><circle cx="3490" cy="3510" r="3482.8" fill="#0e2437"/><path d="m5846 5502.7-394.7-998.4h-1245.6l-114.7-609.1h1208.7l-394.7-993-984.7-2.7-326.4-1604.8-1943.5 131.1 1991.3 131.1-2189.5 131.1 2237.2 132.5-3094.9 132.5 3148.2 131.1-2552.7 132.5 2601.8 131.1-3017 131.1 3068.9 132.5-2667.4 131.1 2715.2 131.1-3657.5 132.5 3706.8 131.1-2745.2 131.1 2797.1 131.1-2189.4 131.1 2237.2 131.1-3319 131.2 3366.7 101.1-1984.5 161.2 2036.4 131.1-3579.7 131.1 3627.5 189.8-2371 81.9 2422.9 131.1-3063.5 131.1 3111.3 131.1-2690.6 131.2 2742.5 131.1-2188 132.5 1490.1 84.7c673.3 38.3 1981.8 51.9 2204.4 41z" fill="#00d07b"/></g></svg>
