<svg width="1e3mm" height="335.69mm" version="1.1" viewBox="0 0 1e3 335.69" xmlns="http://www.w3.org/2000/svg"><g transform="translate(1121.7 115.29)"><g transform="matrix(1.3387 0 0 1.3387 379.97 39.053)" fill="#e37200"><g stroke-width="3.7909"><path transform="matrix(.26458 0 0 .26458 -1080.9 -661.2)" d="m338.02 2332.6c-24.891 0.016-50.174 2.458-68.574 7.2364-151.39 39.315-234.57 202.97-177.88 349.98l11.396 29.553-8.8594 7.0586c-4.8729 3.8819-61.744 49.029-126.38 100.33-69.155 54.887-118.95 97.069-121.01 102.5-2.9594 7.82-0.93961 12.545 13.27 31.061 9.2171 12.01 22.891 28.324 30.387 36.254 7.4959 7.9296 15.343 14.418 17.437 14.418 5.3514 0 18.412-10.001 150.25-115.05l116.87-93.125 19.602 13c59.338 39.353 147.82 51.558 218.62 30.158 61.992-18.736 125-71.4 154.71-129.3 55.728-108.63 34.421-232.48-54.24-315.28-32.004-29.888-75.823-53.803-115.63-63.106-16.356-3.8222-38.012-5.6959-59.975-5.6817zm-2.7461 97.469c17.768-0.1144 35.76 2.6686 53.336 8.5176 83.148 27.67 130.28 119.52 104.65 203.92-14.577 47.992-53.036 88.323-101.94 106.91-58.91 22.384-122.78 7.3302-170.56-40.201-27.125-26.983-40.066-51.685-46.791-89.316-8.5652-47.928 6.1191-97.418 40.057-135 31.894-35.321 75.852-54.536 121.26-54.828zm-213.27 324.88c0.16044-0.01 0.32642 0 0.49805 0.01 6.6361 0.4733 21.326 15.636 21.117 22.891-0.0601 2.085-36.998 32.791-82.084 68.236-45.085 35.445-84.029 64.962-86.543 65.594-3.9557 0.994-20.537-17.764-20.537-23.232 0-1.9762 156.69-127.45 166.27-133.14 0.36654-0.2179 0.79602-0.334 1.2773-0.3574zm-199.77 156.91 10.426 12.459c5.7335 6.8524 10.328 13.377 10.215 14.498-0.11565 1.1213-5.0625 5.8648-10.992 10.541-16.281 12.839-20.627 13.378-29.732 3.6855-11.493-12.234-10.35-18.037 6.0059-30.477z"/><path transform="matrix(.26458 0 0 .26458 -1080.9 -661.2)" d="m1660.4 2063.3v382.35c0 210.29 1.0843 390.27 2.4101 399.94l2.4102 17.588h173.35v-29.922c0-24.874 1.1057-30.346 6.5605-32.44 3.949-1.5153 7.1678-0.5448 8.084 2.4375 3.3374 10.864 38.736 40.641 61.592 51.811 13.322 6.5106 33.605 13.359 45.072 15.219 31.246 5.067 45.703 4.8243 77.736-1.3047 76.15-14.57 136.77-63.342 174.46-140.38 21.749-44.443 29.312-77.169 29.352-127 0.1091-137.1-80.795-243.83-202.89-267.66-62.318-12.16-122.13 4.55-170.26 47.561-11.802 10.548-22.89 19.179-24.641 19.18-1.7509 6e-4 -2.7218-75.912-2.1582-168.7l1.0234-168.7h-91.059zm289.29 428.14c28.234 0.3586 56.548 12.299 78.094 36.775 52.298 59.413 25.204 155.27-50.219 177.67-24.4 7.2461-37.769 6.9911-61.365-1.168-37.188-12.859-61.562-38.388-72.467-75.9-7.3699-25.351-4.635-51.424 7.9746-76.06 20.754-40.55 59.292-61.808 97.982-61.316z"/><path transform="matrix(.26458 0 0 .26458 -1080.9 -661.2)" d="m2458.3 2177.1c-10.578 0-21.158 1.1384-22.566 3.418-1.1893 1.9245-7.1456 4.5938-13.236 5.9316-13.5 2.965-43.801 28.968-51.814 44.465-14.013 27.098-16.55 45.56-16.592 120.7-0.036 64.81 0.9364 77.03 7.7343 97.16 9.9909 29.584 28.373 50.944 52.94 61.512 17.97 7.7306 19.261 9.1661 18.172 20.221-0.9796 9.9391-3.2686 12.44-13.885 15.172-21.197 5.4551-47.368 35.144-56.85 64.494-7.1404 22.102-8.1523 33.949-8.1523 95.34 0 91.102 6.4382 118 34.742 145.15 6.9542 6.6702 22.027 16.382 33.494 21.58 11.467 5.1983 26.592 9.5497 33.609 9.6699 32.614 0.5582 75.69-26.45 92.596-58.055 7.8623-14.699 8.4437-21.247 9.5644-107.76 0.9919-76.559 0.1713-95.186-4.8652-110.35-7.8247-23.558-27.898-46.808-49.391-57.213-20.03-9.6964-22.323-12.613-19.324-24.561 1.5523-6.1846 5.9635-9.7754 14.242-11.594 6.899-1.5153 19.688-10.328 30.107-20.748 28.115-28.115 30.685-41.351 29.234-150.59-1.1211-84.436-1.7239-91.089-9.5683-105.75-10.355-19.359-39.561-45.585-54.391-48.842-6.0907-1.3378-12.047-4.0071-13.236-5.9316-1.4089-2.2796-11.986-3.418-22.564-3.418zm1.623 46.393c1.6624 0.024 3.2596 0.1835 4.7734 0.4863 19.245 3.8489 36.182 16.783 44.512 33.99 7.1266 14.722 7.8496 23.11 7.8496 90.959 0 58.887-1.2446 77.722-5.8672 88.785-6.7838 16.236-20.293 31.884-25.01 28.969-1.7819-1.1013-3.2402-25.486-3.2402-54.189 0-49.65-0.4263-52.59-8.7735-60.432-10.955-10.292-17.816-10.378-30.52-0.3847-9.9329 7.8132-9.9902 8.1487-9.9902 60.43 0 28.916-1.5504 53.532-3.4453 54.703-5.1482 3.1817-22.294-18.987-27.086-35.022-2.6667-8.9228-3.7396-41.803-2.9433-90.154 1.2173-73.922 1.5254-76.509 10.73-90.09 10.829-15.977 32.94-28.287 49.01-28.051zm-29.394 366.73c1.7215 0 3.1289 19.354 3.1289 43.008 0 36.213 1.0488 43.929 6.6347 48.834 11.792 10.355 21.807 11.192 32.574 2.7227 9.7996-7.7082 10.074-9.0428 10.074-49.125 0-22.661 1.445-42.094 3.2109-43.186 4.455-2.7534 21.993 16.346 26.875 29.268 2.3616 6.2505 4.0313 42.272 4.0313 86.943 0 69.393-0.7067 77.731-7.8496 92.486-4.318 8.9197-13.274 19.51-19.902 23.533-34.099 20.7-75.341 4.9482-85.818-32.775-2.1476-7.7325-3.9145-46.099-3.9258-85.26-0.017-55.727 1.2536-74.254 5.8457-85.244 6.0183-14.404 19.544-31.205 25.121-31.205z"/></g><g stroke-width="1.003"><path d="m-399.83-2.7285c0-0.98123 13.333-14.266 14.318-14.266 2.0997 0 0.0575 3.2291-5.5687 8.8053-5.7124 5.6616-8.7493 7.5571-8.7493 5.4607z"/><path d="m-394.82 7.0777c0-0.60181 4.012-1.003 10.03-1.003 6.018 0 10.03 0.4012 10.03 1.003 0 0.6018-4.012 1.003-10.03 1.003-6.0181 0-10.03-0.40121-10.03-1.003z"/><path d="m-393.09 24.354c-6.8584-6.9113-7.7446-8.2496-5.4628-8.2496 1.3266 0 14.767 13.032 14.767 14.318 0 2.1388-3.2892-6e-3 -9.3047-6.0684z"/><path d="m-808.06 58.281c0-39.903-0.48787-45.644-4.3677-51.402-6.7447-10.008-23.678-10.37-31.006-0.66262-4.4324 5.8713-4.7348 9.077-4.7408 50.26l-6e-3 38.867h-48.144v-136.12l6.1652-0.64438c7.9304-0.8289 31.296-0.833 37.326-7e-3l4.6535 0.63784v7.8877c0 4.3383 0.12302 7.8877 0.27337 7.8877 0.15036 0 2.9713-2.5125 6.2688-5.5833 18.986-17.681 47.603-18.999 65.386-3.0114 2.6632 2.3945 5.4737 5.5335 6.2455 6.9756 0.77181 1.4422 1.792 2.6221 2.267 2.6221 0.47504 0 3.6711-2.377 7.1023-5.2822 3.4312-2.9052 8.2869-6.479 10.79-7.9418 18.381-10.74 44.299-9.9259 59.806 1.878 5.1338 3.9079 10.88 13.185 14.123 22.802l2.7325 8.1027 0.31713 49.764 0.31714 49.764-3.1858 0.63716c-1.7522 0.35089-12.382 0.63761-23.622 0.63761h-20.436l-0.031-35.356c-0.035-40.029-0.74048-48.437-4.5462-54.188-3.1198-4.7143-9.1657-7.6956-15.668-7.726-8.4045-0.0394-14.404 3.8036-17.973 11.513-1.7092 3.6917-1.8593 7.2249-1.8795 44.252l-0.0221 40.24-3.7613 0.6217c-2.0687 0.34193-12.901 0.62667-24.072 0.63274l-20.311 0.011z"/><path d="m-1022.4 36.46c-1.343-2.0497-1.7671-4.6894-1.7322-10.782 0.056-9.7833 3.1141-17.088 10.062-24.036 6.5139-6.5139 13.548-8.9096 24.657-8.397 8.5335 0.39376 11.875 1.6094 11.875 4.3206 0 2.0092-2.0419 2.2835-8.6958 1.1681-12.992-2.178-23.254 2.8349-29.161 14.245-2.5953 5.0134-3.2669 7.5167-3.2669 12.176 0 3.2258 0.461 7.0778 1.0245 8.56 0.7279 1.9144 0.6923 3.0952-0.1228 4.0773-1.6623 2.0029-2.6386 1.7227-4.6399-1.3317z"/></g></g></g></svg>
