<svg width="999.6mm" height="998.22mm" version="1.1" viewBox="0 0 999.6 998.22" xmlns="http://www.w3.org/2000/svg"><g transform="translate(1080.9 661.2)"><path d="m-1039.1 39.059c-0.2932-58.454 5.5626-126.98 31.406-184.23 72.171-168.23 236.16-284.2 409.47-330.65 53.994-9.3901 110.45-28.169 165.27-16.316 29.145 10.687 33.222 28.033-2.1891 22.78-25.739 1.6447-83.944 15.705-82.206 23.345 41.126-1.3266 82.252-2.6533 123.38-3.9799-43.925 9.5466-92.103 12.454-137.62 20.584-23.472-3.3828-87.257 25.8-35.057 14.407 51.373-7.9218-37.26 20.379-53.401 21.816-57.034 14.945-116.19 35.652-154.09 83.484-76.256 75.71-149.97 167.99-160.02 278.78-2.7829 46.727 23.613 107.62 78.194 104.32 49.823-8.6523 88.367-47.081 126.16-77.883 54.967-47.467 80.76-117.82 88.778-188.26 3.6968-40.531 13.218-34.256 7.4304-1.4969-7.2647 52.605 23.657-21.205 9.0955-41.271 11.374-23.362 7.8224 60.056 5.331 76.226-2.7226 22.48-17.309 75.146 4.8103 27.801 24.634-43.081 18.186-95.03 36.022-139.55 12.792-19.649-7.6231 55.06 8.3556 9.7742 11.494-19.54-7e-3 -100.48 23.102-40.585 18.64 0.4006 58.901-49.244 92.871-58.593 84.082-44.705 167.83-97.209 263.98-110.36-37.632-68.937-111.07-108.19-178.09-143.57-194.39-93.373-447.1-44.068-587.76 120.73-112.89 127.16-156.16 314.18-101.4 476.34 5.6288 18.92 11.846 37.659 18.17 56.357zm507.78-501.54c-16.653 5.3992-38.752 6.5048-52.027 14.567 15.349-1.831 48.964 6.7436 52.027-14.567zm308 35.378c11.824 3.3169 32.6-3.5611 47.865-4.1621-11.274 29.136-93.003 32.926-107.56 57.561 17.818-4.6194 35.636-9.2389 53.453-13.858-46.216 32.558-102.77 47.615-152.06 75.516-23.465 19.165-103.81 31.336-80.242 67.982 52.309 1.3102 104.56-19.784 158.16-13.341 33.784-2.0344 91.381 9.7412 101.96 25.213 22.768 20.165 56.601 66.427 19.685 101.89-68.267 84.555-163.1 141.5-239.73 217.79-27.966 24.663-65.513 60.638-89.532 75.988 27.247-41.447-70.411 42.435-30.247 21.182 27.506-14.067-8.3864 11.44-17.196 17.764-55.297 39.165-106.69 85.728-170.25 111.34 108.76 38.821 231.13 25.626 337.51-14.365 206.42-82.118 336.75-313.75 305.67-532.65-10.118-71.168-37.748-139.09-73.179-201.12-16.131-25.339-45.345 0.22204-64.301 7.2751m-187.3 112.38c35.492-1.0556 72.812-32.256 108.66-45.559 28.619-27.551-44.503 5.4167-57.852 15.599-16.991 9.8899-33.456 20.686-50.804 29.96zm-401.65-43.702c-51.182 36.307-99.119 80.345-133.19 133.19 46.694-33.387 77.073-84.729 125.26-116.29 4.4485-4.4239 8.3234-10.316 7.9239-16.902zm27.054 43.702c-52.635 40.642-103.16 87.724-126.77 151.67-9.5046 21.359-23.928 63.126-20.391 73.689 34.645-78.925 80.039-153.61 142.19-214.01l3.6015-5.317zm270.54 70.756c-3.8911 14.202 17.363 10.156 0 0zm-457.83 99.891c25.728-21.874 61.5-77.553 59.07-94.828-30.447 22.193-51.049 58.395-59.07 94.828zm430.78-74.918c13.422 53.752 21.748 5.5819 0 0zm27.054 0c11.441 30.57 66.315 23.337 18.008 3.7712-5.7982-2.0384-11.856-3.4457-18.008-3.7712zm-441.19 2.081c-2.7026 17.035 12.506-2.2324 0 0zm717.97 12.486c17.77 10.739 56.293 28.882 23.073-3.156-7.0124-5.0864-18.169-4.9193-23.073 3.156zm-343.38 8.3243c-5.5495 24.973-11.099 49.946-16.649 74.918 11.044-18.542 29.078-52.089 16.649-74.918zm335.05 4.1622c7.7577 7.3334 38.86 33.421 37.923 22.632-6.305-14.75-23.389-20.243-37.923-22.632zm-734.62 14.567c-25.076 68.571-49.446 141.41-34.926 215.3-4.2842 17.52 23.921 70.41 11.971 26.193-11.972-77.117-2.6407-158.11 24.475-231.29 10.453-11.88 3.2055-10.063-1.5197-10.197zm420.38 0c-38.198 121.46-98.313 251.55-219.09 309.8-48.076 19.081-100.16 42.593-152.99 33.721-23.923-9.0497-50.934-26.246-21.263 6.4504 44.033 53.529 104.6 90.357 166.51 119.81 34.063 19.313 102.1-75.294 43.158-39.345-11.271 17.931-67.938 29.173-25.89 6.4367 153.49-125.84 319.25-237.13 462.11-375.49 46.136-45.993-21.935-73.308-61.466-52.192-32.1 2.599-139.54 46.148-122.41 30.849 17.208-13.645 27.526-24.192-1.6703-16.976-18.261 4.5369-34.855 2.2391-48.744-11.154-6.0825-3.9678-12.165-7.9357-18.248-11.904zm303.84 18.73c10.283 22.048 14.832-3.8355 0 0zm31.216 2.0811c-2.987 14.333 8.835 14.371 0 0zm-713.81 74.918c3.558 3.558 1.8486 1.8486 0 0zm-6.2432 18.73c-4.6417 9.6708 1.1051 13.062 0 0zm293.43 2.0811c-14.163 19.277-12.774 36.654 0 0zm-324.65 4.1621c-15.464 43.23-14.746 91.561 0.36969 134.68 11.855 12.411 0.0361-31.209 1.3166-43.825-4.0888-30.268-4.1301-60.447-1.6863-90.852zm214.35 110.3c22.318-6.6007 65.789-56.522 52.218-57.877-21.363 14.857-41.043 34.084-52.218 57.877zm29.135 31.216c20.61-9.587 81.128-80.387 33.037-39.05-12.287 11.866-23.145 25.147-33.037 39.05zm-220.59-12.486c6.1175 35.423 57.243 33.898 12.923 10.051-4.3076-3.3503-8.6152-6.7007-12.923-10.051zm58.27 41.621c6.5909 3.4525 61.317 0.84012 36.967-2.7126-12.322-1.4138-24.993-0.54758-36.967 2.7126zm-52.027 2.0811c17.227 21.38 44.961 12.922 10.226 4.0904-3.4087-1.3635-6.8174-2.727-10.226-4.0904zm243.48 112.38c42.968-7.3073 72.617-45.616 108.05-68.55 24.997-14.731 31.932-31.386-0.30015-8.6593-35.191 26.629-76.385 46.491-107.75 77.209zm-52.027 70.756c46.922 0.7881 86.834-52.286 127.97-77.187 21.925-19.76 90.206-65.969 83.402-70.158-73.391 44.844-141.2 97.771-211.37 147.34zm181.05-95.729c17.278-10.798 22.157-13.848 0 0z" fill="#9f97f4"/></g></svg>
