<svg stroke-linejoin="round" stroke-miterlimit="1.4142" version="1.1" viewBox="0 0 1000 948.02" xmlns="http://www.w3.org/2000/svg"><g transform="matrix(4.6205 0 0 4.6205 -.0046205 .026798)"><path d="m207.55 105.92a65.83 65.83 0 0 0-28.245-26.365 72.03 72.03 0 0 1-8.432 22.794l-6.623 11.493c4.411 2.451 8.252 6.058 10.96 10.749 7.957 13.78 3.232 31.406-10.55 39.363s-31.406 3.235-39.363-10.547l-13.364-23.111h-21.565l-10.783 18.675 13.373 23.107c18.271 31.645 58.732 42.486 90.377 24.215s42.483-58.729 24.215-90.373" fill="#70caf2"/><path d="m141.28 8.868c-31.645-18.268-72.105-7.426-90.373 24.215a65.82 65.82 0 0 0-8.711 37.644c7.501-2.64 15.56-4.095 23.958-4.095l13.261-0.012c-0.084-5.044 1.123-10.175 3.828-14.862 7.96-13.783 25.583-18.507 39.366-10.547s18.504 25.58 10.547 39.363l-13.33 23.129 10.78 18.678 21.566-3e-3 13.324-23.135c18.271-31.641 7.43-72.105-24.215-90.373" fill="#b4e3f9"/><path d="m87.592 175.18-6.645-11.481c-4.327 2.596-9.371 4.116-14.785 4.116-15.917 0-28.819-12.902-28.819-28.819s12.902-28.815 28.819-28.815l26.694-0.019 10.786-18.675-10.786-18.675-26.697 0.025c-36.539 1e-3 -66.158 29.623-66.158 66.16s29.619 66.162 66.158 66.162c13.683 0 26.393-4.157 36.943-11.27-6.037-5.177-11.313-11.441-15.51-18.709" fill="#3f79ad"/></g></svg>
