<svg version="1.1" viewBox="0 0 1000 424.83" xmlns="http://www.w3.org/2000/svg"><g transform="matrix(13.072 0 0 13.072 .0047113 0)"><path d="m71.7 2.8h-4.2c-2-1.8-4.6-2.8-7.4-2.8h-9.4c-4 0-7.5 2.2-9.5 5.4-1.2-0.9-2.6-1.4-4.2-1.4s-3 0.5-4.2 1.4c-1.9-3.2-5.5-5.4-9.5-5.4h-9.4c-2.8 0-5.4 1-7.4 2.8h-4.2a2.26 2.26 0 0 0-2.3 2.3 2.26 2.26 0 0 0 2.3 2.3h1.2c-0.4 1.2-0.6 2.4-0.6 3.7v3.9c0 8.3 6.8 15 15 15h1.5c8.3 0 15-6.8 15-15v-3.9a2.65 2.65 0 0 1 2.6-2.6 2.65 2.65 0 0 1 2.6 2.6v3.9c0 8.3 6.8 15 15 15h1.5c8.3 0 15-6.8 15-15v-3.9c0-1.3-0.2-2.5-0.6-3.7h1.2a2.26 2.26 0 0 0 2.3-2.3 2.26 2.26 0 0 0-2.3-2.3zm-52.3 22.7h-1.5a10.5 10.5 0 0 1-10.5-10.5v-3.9c0-1.7 0.6-3.2 1.7-4.4 1.2-1.3 2.9-2.2 4.9-2.2h9.4c3.6 0 6.6 2.9 6.6 6.6v3.9c-0.1 5.8-4.8 10.5-10.6 10.5zm36.7 0h-1.5a10.5 10.5 0 0 1-10.5-10.5v-3.9c0-3.6 2.9-6.6 6.6-6.6h9.4c3.6 0 6.6 2.9 6.6 6.6v3.9c0 5.8-4.8 10.5-10.6 10.5z" fill="#6875f5" fill-opacity=".8"/><path d="m74.2 5.3h-4.2c-2-1.8-4.6-2.8-7.4-2.8h-9.4c-4 0-7.5 2.2-9.5 5.4-1.2-0.9-2.6-1.4-4.2-1.4s-3 0.5-4.2 1.4c-1.9-3.2-5.5-5.4-9.5-5.4h-9.4c-2.8 0-5.4 1-7.4 2.8h-4.2a2.26 2.26 0 0 0-2.3 2.3 2.26 2.26 0 0 0 2.3 2.3h1.2c-0.4 1.2-0.6 2.4-0.6 3.7v3.9c0 8.3 6.8 15 15 15h1.5c8.3 0 15-6.8 15-15v-3.9a2.65 2.65 0 0 1 2.6-2.6 2.65 2.65 0 0 1 2.6 2.6v3.9c0 8.3 6.8 15 15 15h1.5c8.3 0 15-6.8 15-15v-3.9c0-1.3-0.2-2.5-0.6-3.7h1.2a2.26 2.26 0 0 0 2.3-2.3 2.26 2.26 0 0 0-2.3-2.3zm-52.3 22.7h-1.5a10.5 10.5 0 0 1-10.5-10.5v-3.9c0-1.7 0.6-3.2 1.7-4.4 1.2-1.3 2.9-2.2 4.9-2.2h9.4c3.6 0 6.6 2.9 6.6 6.6v3.9c-0.1 5.8-4.8 10.5-10.6 10.5zm36.7 0h-1.5a10.5 10.5 0 0 1-10.5-10.5v-3.9c0-3.6 2.9-6.6 6.6-6.6h9.4c3.6 0 6.6 2.9 6.6 6.6v3.9c0 5.8-4.8 10.5-10.6 10.5z" fill="#f05252" fill-opacity=".8"/><path d="m72.95 4.05h-4.2c-2-1.8-4.6-2.8-7.4-2.8h-9.4c-4 0-7.5 2.2-9.5 5.4-1.2-0.9-2.6-1.4-4.2-1.4s-3 0.5-4.2 1.4c-1.9-3.2-5.5-5.4-9.5-5.4h-9.4c-2.8 0-5.4 1-7.4 2.8h-4.2a2.26 2.26 0 0 0-2.3 2.3 2.26 2.26 0 0 0 2.3 2.3h1.2c-0.4 1.2-0.6 2.4-0.6 3.7v3.9c0 8.3 6.8 15 15 15h1.5c8.3 0 15-6.8 15-15v-3.9a2.65 2.65 0 0 1 2.6-2.6 2.65 2.65 0 0 1 2.6 2.6v3.9c0 8.3 6.8 15 15 15h1.5c8.3 0 15-6.8 15-15v-3.9c0-1.3-0.2-2.5-0.6-3.7h1.2a2.26 2.26 0 0 0 2.3-2.3 2.26 2.26 0 0 0-2.3-2.3zm-52.3 22.7h-1.5a10.5 10.5 0 0 1-10.5-10.5v-3.9c0-1.7 0.6-3.2 1.7-4.4 1.2-1.3 2.9-2.2 4.9-2.2h9.4c3.6 0 6.6 2.9 6.6 6.6v3.9c-0.1 5.8-4.8 10.5-10.6 10.5zm36.7 0h-1.5a10.5 10.5 0 0 1-10.5-10.5v-3.9c0-3.6 2.9-6.6 6.6-6.6h9.4c3.6 0 6.6 2.9 6.6 6.6v3.9c0 5.8-4.8 10.5-10.6 10.5z"/></g></svg>
