<svg version="1.1" viewBox="0 0 1000 208.42" xmlns="http://www.w3.org/2000/svg"><path d="m71.905 169c-17.764-2.9776-34.476-11.346-47.148-23.608-12.973-12.55-20.945-28.065-23.65-46.012-5.7847-38.381 11.392-72.751 44.757-89.538 13.562-6.8252 27.425-9.836 45.313-9.8405 21.948-0.0066415 39.094 4.5738 54.113 14.454 5.5833 3.6727 18.669 15.811 18.669 17.317 0 0.65751-33.112 30.704-33.836 30.704-0.16161 0-2.7695-2.3976-5.7936-5.3243-11.423-11.067-25.065-15.322-39.386-12.287-14.64 3.1016-25.596 14.244-28.685 29.169-1.1003 5.3176-1.1003 16.865 0 22.18 2.2448 10.848 10.084 21.51 19.037 25.893 16.367 8.0141 34.996 4.5893 49.034-9.0103 3.0241-2.9289 5.6298-5.3243 5.7936-5.3243 0.72392 0 33.836 30.046 33.836 30.704 0 1.5054-13.086 13.644-18.669 17.317-10.328 6.7942-23.216 11.496-37.321 13.615-7.6864 1.1534-28.113 0.92095-36.061-0.41177zm172.1 0.062c-9.3069-1.7091-17.819-4.5339-26.553-8.811-22.953-11.24-37.974-30.035-44.303-55.439-2.3179-9.3025-2.4795-28.771-0.31658-38.04 5.8821-25.202 20.64-44.48 42.753-55.846 16.688-8.5764 30.13-11.357 51.746-10.706 15.027 0.45384 20.786 1.4589 32.515 5.674 26.457 9.5106 46.557 31.317 53.276 57.799 1.5253 6.0128 1.7711 8.9859 1.7711 21.43 0 16.978-1.3106 23.703-6.9404 35.583-11.678 24.653-31.204 40.011-60.176 47.325-8.4723 2.1386-34.401 2.7474-43.772 1.0272zm26.252-43.329c9.5837-1.7888 18.689-8.2244 23.752-16.787 4.5494-7.6953 6.0061-13.476 6.0061-23.821 0-10.345-1.4589-16.126-6.0061-23.821-12.003-20.303-40.462-23.42-56.574-6.1965-7.516 8.034-10.978 17.5-10.978 30.015 0 12.495 3.4624 21.981 10.941 29.977 8.5077 9.0944 20.429 12.951 32.86 10.631zm105.35-40.608v-82.005h45.251l62.136 74.32 0.40513-74.323h53.874v164.01h-45.093l-62.293-74.486-0.40513 74.486h-53.874z" fill="#24896c" stroke-width="2.2138"/><path d="m942.41 207.98c-9.7696-1.1158-16.052-2.9665-25.189-7.4185-10.407-5.0719-19.413-11.764-31.507-23.418-6.73-6.4843-9.8183-8.9284-11.84-9.3667-31.394-6.812-58.062-33.238-64.354-63.772-9.6147-46.656 16.865-88.746 63.395-100.77 12.183-3.1481 32.05-3.9628 44.79-1.8375 34.027 5.6763 59.722 26.347 69.937 56.256 4.1531 12.163 5.3641 29.989 2.9665 43.73-4.2838 24.569-20.684 46.579-43.11 57.863l-8.0207 4.0978c-0.21253 0.14169 0.90103 1.439 2.4751 2.8824 7.4518 6.8297 21.729 5.4305 32.333-3.1702l3.1813-2.5791 11.268 13.303c6.1965 7.3167 11.268 13.863 11.268 14.545 0 1.9969-10.37 10.139-17.168 13.48-3.4425 1.6914-9.0014 3.7679-12.351 4.6114-7.2547 1.8286-19.692 2.5216-28.074 1.563zm-33.931-82.372c13.602-3.5421 23.737-14.182 27.164-28.512 0.56453-2.3622 1.0272-7.6333 1.0272-11.716 0-12.962-3.624-22.729-11.366-30.644-13.803-14.107-36.909-14.162-50.951-0.11955-7.6067 7.6067-11.41 17.861-11.41 30.763 0 12.902 3.8034 23.159 11.41 30.763 8.9771 8.9771 22.063 12.606 34.128 9.4641zm-341.99 21.08-13.983-20.697h-15.238v-41.246l14.644-0.27673c13.85-0.26345 14.855-0.38521 18.55-2.2603 10.429-5.2955 13.037-20.79 5.032-29.884-4.6889-5.3265-7.8347-6.1766-24.361-6.5839l-13.863-0.34093v-42.266l18.158 0.48704c10.784 0.29001 20.916 0.98073 24.952 1.7024 27.093 4.8505 44.567 18.581 52.191 41.007 2.3644 6.9581 3.0219 24.299 1.242 32.802-1.9548 9.3424-7.3123 19.276-14.014 25.986-3.1016 3.1038-7.1462 6.522-8.9882 7.5979-1.8419 1.0759-4.0424 2.4795-4.8881 3.1237-1.6493 1.2574-2.2825 0.25016 27.099 43.15l5.7493 8.3948h-58.299zm90.271-61.308v-82.005h131.99v41.392h-78.881v19.524h69.508v39.831h-69.508v21.868h82.005v41.392h-135.11z" fill="#575c5f" stroke-width="2.2138"/></svg>
