<svg version="1.1" viewBox="0 0 1000 1000" xmlns="http://www.w3.org/2000/svg" xmlns:xlink="http://www.w3.org/1999/xlink"><g transform="matrix(4.0001 0 0 4.0001 .0235 -.021829)"><g transform="matrix(1.3333 0 0 -1.3333 186.86 491.61)"><circle transform="scale(1,-1)" cx="-46.403" cy="-274.96" r="90" fill="#ffe6d5" fill-rule="evenodd"/><path d="m-108.1 258.51 16.177 19.001 121.48 0.403-15.767-19.404h-121.89" fill="#83331b"/><path d="m-108.1 258.51v-51.063c9.222-0.41 16.254-3.919 16.264-8.115h94.328c-0.746 1.07-1.13 2.225-1.131 3.393 2e-3 4.411 5.399 8.089 12.431 8.47v47.316z" fill="#f8a37b"/><path d="m-38.324 249.9c1.962 1.06 4.991 4.244 3.122 7.428-0.346 0.589-0.684 0.968-1.008 1.183h8.145c-1.06-2.333-4.89-5.155-4.89-5.155s-0.313-0.606-2.011-1.941c-0.961-0.754-2.341-1.237-3.358-1.515m-24.041 0.131c-1.001 0.465-2.455 1.262-3.478 2.348-1.708 1.813-2.052 4.191-2.052 4.191l-1.208 1.941h4.853c-0.324-0.215-0.661-0.594-1.007-1.183-1.797-3.062 0.935-6.124 2.892-7.297m22.287 0.961c-1.065 0.104-3.04 0.372-5.015 1.03-2.911 0.97-4.609 3.153-4.609 3.153s-3.275-2.001-7.641-2.796c-1.458-0.265-2.408-0.354-3.028-0.354h-0.029c-0.087 1.464-0.387 3.029-0.387 3.029s-0.827 2.653-2.068 3.457h25.251c-1.241-0.804-2.069-3.457-2.069-3.457s-0.464-2.425-0.405-4.062" fill="#da845d"/><path d="m-60.787 255.05s0.923-4.821 0-5.458-6.926 3.548-4.47 7.732 4.47-2.274 4.47-2.274m21.114 0s-0.922-4.821 0-5.458 6.927 3.548 4.471 7.732-4.471-2.274-4.471-2.274" fill="#dee6e3"/><path d="m-75.274 295.46a9.87 9.87 0 0 0-7.637-11.683 9.87 9.87 0 1 0-4.045 19.32 9.87 9.87 0 0 0 11.682-7.637" fill="#d4541e"/><path d="m-79.137 301.41c-2.176 1.581-4.979 2.281-7.819 1.686a9.87 9.87 0 0 1-7.637-11.683c0.243-1.161 0.69-2.224 1.282-3.177 4.349 1.479 10.933 5.007 14.174 13.174" fill="#852e1b"/><path d="m-79.556 294.56c0.621-2.97-1.282-5.881-4.252-6.503s-5.881 1.281-6.503 4.251 1.282 5.881 4.251 6.503 5.882-1.281 6.504-4.251" fill="#fff"/><path d="m-11.971 297.29c-2.292 0-4.427 1.456-5.185 3.752-0.941 2.854 0.602 5.932 3.449 6.887 1.578 0.545 9.258 3.6 6.96 10.765-1.66 5.18-4.8 5.934-14.08 6.919l-5.289 0.629c-6.567 0.938-11.396 3.654-14.351 8.072-4.312 6.445-2.622 13.751-2.415 14.562 0.744 2.922 3.717 4.683 6.64 3.943a5.46 5.46 0 0 0 3.942-6.64c2e-3 0-0.74-3.391 0.946-5.845 1.168-1.701 3.45-2.804 6.783-3.281 1.632-0.233 3.292-0.409 4.897-0.58 8.623-0.915 19.355-2.056 23.327-14.443 4.228-13.187-6.004-21.855-13.912-24.464a5.47 5.47 0 0 0-1.712-0.276" fill="#e2591e"/><path d="m-31.354 340.34-0.162 0.262c-3.6-2.3-8.146-2.791-10.691-2.868a16.51 16.51 0 0 1 1.74-3.414c0.966-1.445 2.153-2.688 3.516-3.766 4.784 0.793 8.636 4.38 10.757 6.815-2.455 0.573-4.194 1.564-5.16 2.971m11.595-14.84c3.913-0.433 6.655-0.862 8.622-1.688 1.349 2.24 3.232 5.957 3.93 10.147-2.897 1.167-6.016 1.739-9.03 2.126 0.263-2.716 0.078-7.398-3.522-10.585m23.915-13.51c0.613 2.488 0.673 5.256-0.025 8.278a11.04 11.04 0 0 0-4.202-2.11c-2.954-0.768-5.066-0.721-6.408-0.509 0.581-2.947-0.577-5.128-2.15-6.674 4.852-2.119 9.593-0.653 12.785 1.015" fill="#852e1b"/><path d="m-6.447 314.86c3e-3 0.068 0.015 0.132 0.025 0.197l1e-3 2e-3 0.028 0.238c0.031 0.251 0.052 0.506 0.056 0.77l1e-3 0.16c-4e-3 0.338-0.027 0.685-0.081 1.047l1e-3 -1e-3c-0.066 0.45-0.167 0.916-0.322 1.404a9.69 9.69 0 0 0 0.265-1.025c0.195-1.02 0.188-1.949 0.026-2.792m-0.292 3.82c-3e-3 7e-3 -5e-3 0.015-8e-3 0.022-0.856 2.671-2.105 4.165-4.386 5.121 2.281-0.956 3.53-2.45 4.386-5.121 3e-3 -7e-3 5e-3 -0.015 8e-3 -0.022m-13.018 6.825-1.07 0.116-5.29 0.629-0.146 0.022 0.147-0.022 5.289-0.629 1.07-0.116m-6.54 0.772-0.023 3e-3 0.023-3e-3m-0.075 0.011h-3e-3 3e-3" fill="#83bad2"/><path d="m3.323 309.51-1.865 1.311c0.962 0.334 1.851 0.733 2.646 1.146 0.013-8e-3 0.025-0.017 0.037-0.026a16.41 16.41 0 0 0-0.818-2.431m-7.988 8.008c-0.71 0-1.312 0.056-1.808 0.134a9.69 9.69 0 0 1-0.265 1.025l-9e-3 0.025c-0.856 2.671-2.105 4.165-4.386 5.121 0.494 0.82 1.059 1.839 1.612 3.006 2.749-1.108 4.625-2.821 6.016-5.603 0.566-1.131 0.757-2.351 0.695-3.592-0.685-0.082-1.303-0.116-1.855-0.116m-15.092 7.987-1.07 0.116-5.289 0.629-0.147 0.022a0.4 0.4 0 0 0-0.034 5e-3l-0.023 3e-3 -0.052 8e-3h-3e-3c-4.878 0.737-8.769 2.481-11.64 5.178 0.341-0.316 0.696-0.619 1.064-0.91a12.79 12.79 0 0 1 1.664 0.394c2.752-0.893 6.221-1.645 10.437-1.887 2.795-0.16 5.246-0.326 7.403-0.556-0.54-1.068-1.287-2.095-2.31-3.002" fill="#ba4a1f"/><path d="m-36.951 330.55-1.064 0.91-0.883 0.893c1.024-0.474 2.227-0.959 3.611-1.409a12.79 12.79 0 0 0-1.664-0.394m25.818-6.73c-1.97 0.825-4.707 1.249-8.624 1.682 1.023 0.907 1.77 1.934 2.31 3.002 3.255-0.346 5.842-0.838 7.926-1.678-0.553-1.167-1.118-2.186-1.612-3.006m12.591-13c-2.431 1.612-5.063 2.99-7.905 4.039 0.162 0.843 0.169 1.772-0.032 2.793 0.502-0.079 1.104-0.135 1.814-0.135 0.552 0 1.17 0.034 1.855 0.116a10.66 10.66 0 0 0-0.219-1.652c2.551-1.103 4.934-2.454 7.133-4.015-0.795-0.413-1.684-0.812-2.646-1.146" fill="#6f2717"/><path d="m1.956 321.14s-4.428 6.195-10.044 9.266a25.89 25.89 0 0 1 0.617 2.217c0.927-0.436 1.771-0.935 2.477-1.507 4.964-4.019 6.95-9.976 6.95-9.976m-18.127 12.572c-3.248 1.173-5.535 1.865-5.535 1.865s2.427-0.091 5.54-0.568a16.57 16.57 0 0 0-5e-3 -1.297" fill="#e66733"/><path d="m-8.088 330.41-1.456 0.71-6.627 2.596 5e-3 1.297c2.763-0.423 6.066-1.15 8.695-2.386l-0.617-2.217" fill="#94401d"/><path d="m-57.687 303.78s14.474 17.064 43.825 12.94 40.267-42.45 40.267-42.45l-12.614-15.767h-71.478v45.277" fill="#ef5d22"/><path d="m-53.065 307.89c3.118 0.854 8.074 1.536 15.715 1.011 18.532-1.273 42.591-30.99 42.591-30.99s-10.668 33.893-44.619 36.942c-6.085-1.951-10.642-4.693-13.687-6.963" fill="#852e1b"/><path d="m5.028 263.3h-4.184c-1.15 3.215-6.923 18.376-16.161 26.318-7.613 6.544-18.654 14.166-32.41 14.879a40.95 40.95 0 0 0 2.092 0.054c9.919 0 18.501-3.657 25.49-8.144 0.021 0.129 0.034 0.258 0.061 0.388a9.77 9.77 0 0 0 1.665 3.758c5.534-3.983 10.713-8.764 14.808-12.906a9.89 9.89 0 0 0-3.497-2.159c6.883-8.215 11.163-19.471 12.136-22.188m-6.338 27.706c-2.837 4.334-6.709 9.107-11.819 13.25a11.46 11.46 0 0 0 0.451 0.116l0.167 0.041c0.259 0.056 0.521 0.099 0.786 0.134l0.227 0.033c0.249 0.027 0.501 0.04 0.754 0.048 0.091 3e-3 0.181 0.012 0.273 0.012h0.023c0.245 0 0.492-0.016 0.74-0.034 0.09-6e-3 0.18-6e-3 0.271-0.015 0.344-0.035 0.689-0.086 1.035-0.159a9.87 9.87 0 0 0 7.637-11.682c-0.117-0.56-0.289-1.092-0.492-1.606l-0.034-0.091c-6e-3 -0.016-0.012-0.031-0.019-0.047" fill="#c74d1f"/><path d="m-3.611 287.65c-4.095 4.142-9.274 8.923-14.808 12.906a9.94 9.94 0 0 0 2.198 2.193 9.72 9.72 0 0 0 0.835 0.545l0.017 0.01c0.278 0.161 0.564 0.309 0.857 0.443l0.053 0.025a9.78 9.78 0 0 0 0.852 0.335l0.105 0.038c0.124 0.04 0.248 0.078 0.373 0.114 5.11-4.143 8.982-8.916 11.819-13.25-0.207-0.503-0.456-0.98-0.737-1.433v-1e-3c-0.442-0.711-0.969-1.357-1.564-1.925" fill="#6f2717"/><path d="m-24.269 296.79a9.87 9.87 0 1 1 19.32-4.045 9.87 9.87 0 0 1-7.637 11.682c-5.335 1.117-10.565-2.302-11.683-7.637" fill="#d4541e"/><path d="m-20.406 302.74c2.176 1.581 4.98 2.281 7.82 1.686a9.87 9.87 0 0 0 7.637-11.682c-0.243-1.162-0.691-2.225-1.282-3.178-4.35 1.48-10.934 5.007-14.175 13.174" fill="#852e1b"/><path d="m-19.986 295.9c-0.622-2.969 1.282-5.881 4.251-6.503s5.881 1.282 6.503 4.251-1.281 5.882-4.251 6.504-5.881-1.282-6.503-4.252" fill="#fff"/><path d="m-95.609 258.51-4.852 4.94s15.465 31.449 36.75 38.724 38.024-3.64 48.394-12.554 16.373-26.926 16.373-26.926l-3.82-4.184h-92.845" fill="#f46a2f"/><path d="m-71.124 289.57s17.435 13.737 20.853 13.737 20.078-12.054 20.078-12.054l-2.762-3.317s-14.548 11.807-17.316 11.807-16.459-11.807-16.459-11.807l-4.394 1.634m8.639-5.28s10.016 8.491 12.885 8.491 12.401-7.399 12.401-7.399l-2.597-5.067s-7.579 8.22-9.804 8.22-10.777-7.641-10.777-7.641l-2.108 3.396" fill="#852e1b"/><path d="m-100.46 263.45 13.49 4.52s-4.302 14.009 8.251 20.74 18.102-0.182 19.83-4.184 1.729-14.555 1.729-14.555h14.954s-0.157 15.707 6.271 20.194 16.095 5.094 19.873-3.274 0-15.646 0-15.646l17.119-8.551-3.82-4.184h-92.845l-4.852 4.94" fill="#fff"/><path d="m-60.787 277.91c0-3.282-2.66-5.943-5.943-5.943s-5.943 2.661-5.943 5.943 2.661 5.943 5.943 5.943 5.943-2.661 5.943-5.943" fill="#fddd04"/><use width="100%" height="100%" fill="#391913" xlink:href="#a"/><path d="m-67.622 280.55a1.751 1.751 0 1 0-3.502 0 1.751 1.751 0 1 0 3.502 0" fill="#fff"/><path d="m-27.012 277.91c0-3.282-2.661-5.943-5.943-5.943s-5.943 2.661-5.943 5.943 2.661 5.943 5.943 5.943 5.943-2.661 5.943-5.943" fill="#fddd04"/><use x="33.775002" width="100%" height="100%" fill="#391913" xlink:href="#a"/><path d="m-33.847 280.55a1.7515 1.7515 0 1 0-3.503 0 1.7515 1.7515 0 1 0 3.503 0" fill="#fff"/><path d="m13.791 258.51h-12.371l3.821 4.184-0.213 0.608h8.763l11.536 14.197 1.078-3.222-12.614-15.767" fill="#c74d1f"/><path d="m1.42 258.51h-4.184l3.82 4.184-0.212 0.608h4.184l0.213-0.608-3.821-4.184" fill="#a33f1e"/><path d="m1.056 262.69-1.217 0.608h1.005l0.212-0.608" fill="#de581d"/><path d="m-2.764 258.51h-92.845l-4.706 4.792h100.15l1.217-0.608-3.82-4.184" fill="#d5d0cd"/><path d="m-58.975 271.48s-5.68-1.462-7.755-6.855 0.745-9.305 5.475-10.397 11.553 2.456 11.553 2.456 5.602-5.458 12.352-4.093 8.934 9.096 5.659 13.736-11.28 5.153-11.28 5.153-12.179-3.488-16.004 0" fill="#fff"/><path d="m-49.702 256.69s0.282-0.27 0.773-0.664v8.605a0.67 0.67 0 0 1-0.671 0.671c-0.369 0-0.671-0.301-0.671-0.671v-8.217l0.569 0.276" fill="#a6b9b5"/><g fill="#852e1b"><path d="m-42.306 265.56s4.394 5.176 1.554 7.403-5.535-1.611-9.101-1.267-7.301 3.095-8.825 0.572 2.303-5.562 2.303-5.562 0.908 2.659 3.196 1.379 0.361-3.99 0.361-3.99 1.685-1.104 3.059-1.331 3.509 1.549 3.509 1.549-1.109 3.074 1.246 4.262 2.698-3.015 2.698-3.015m-43.599 15.97s-3.367-4.374-3.094-10.832 9.56-12.189 9.56-12.189l-3.656 5.688a3.29 3.29 0 0 0 0.717 4.353l5.659 4.513s-7.641-2.456-8.914-0.637-0.272 9.104-0.272 9.104"/><path d="m-15.458 285.38s-0.525-5.679-1.92-8.498-6.217-1.547-6.217-1.547 5.367-2.729 5.367-4.457-3.639-7.186-3.639-7.186 11.817 7.446 6.409 21.688m-70.569-26.87s-2.365 1.758-3.882 4.245-2.001 4.002-2.001 4.002-0.182-3.275 0.728-5.458 1.637-2.789 1.637-2.789h3.518m72.286 0s2.209 1.81 4.124 5.185 2.608 7.791 2.608 7.791 0.909-6.366 0.303-9.095-1.577-3.881-1.577-3.881h-5.458m8.953 55.66c-2.809 1.198-5.822 2.093-9.074 2.55a65.16 65.16 0 0 1-7.739 0.628c4.835-1.15 14.841-4.264 22.793-11.581 10.901-10.029 15.146-19.22 15.146-19.22s-6.557 18.098-21.126 27.623m6.744-12.22s7.105-5.586 11.35-16.571 4.124-13.897 4.124-13.897l-18.072 22.682 12.008-11.037s-0.486 6.443-9.41 18.823"/></g><path d="m29.559 277.91-15.767-19.403v-44.945c1.185 1.576 2.607 2.423 4.065 2.423 1.389 0 2.746-0.768 3.898-2.208l7.805 14.164z" fill="#f6854f"/><path d="m-3.31 240.43h7.034v5.97h3.188l-6.705 7.626-6.705-7.626h3.188v-5.97m3.517-1.81h-6.705v-2.309h13.41v2.309h-6.705" fill="#852e1b"/><path d="m-4.287 310.02c-3.321 1.214-7.933 2.459-13.091 2.58l-2.015 0.023c-2.736 0-5.535-0.12-8.147-0.292-1.365 0.475-2.782 0.899-4.25 1.261 3.254 0.749 7.275 1.374 11.627 1.374a43.59 43.59 0 0 0 3.511-0.14c1.663-0.135 3.198-0.364 4.61-0.658 2.489-1.076 5.144-2.437 7.755-4.148" fill="#f06c34"/><path d="m-39.796 311.08s3.151 1.392 8.006 2.508l4.25-1.261c-6.75-0.447-12.256-1.247-12.256-1.247m40.852-3.45s-2.028 1.18-5.343 2.392c-2.611 1.711-5.266 3.072-7.755 4.148 9.116-1.899 13.098-6.54 13.098-6.54" fill="#94401d"/><path d="m-46.403 368.71a93.75 93.75 0 1 1 0-187.5 93.75 93.75 0 1 1 0 187.5zm0-18.75a75 75 0 1 0 0-150 75 75 0 1 0 0 150z" fill="#e66001" fill-rule="evenodd"/><path d="m-31.354 340.34c-1.686 2.454-0.944 5.845-0.946 5.845a5.46 5.46 0 0 1-3.942 6.64c-2.923 0.74-5.896-1.021-6.64-3.943-0.2-0.781-1.757-7.578 1.972-13.834 2.907 0.545 7.163 1.779 10.204 4.534-0.24 0.239-0.463 0.488-0.648 0.758" fill="#fff"/></g></g><defs><path id="a" d="m-62.485 277.91c0-2.344-1.901-4.245-4.245-4.245s-4.244 1.901-4.244 4.245 1.9 4.244 4.244 4.244 4.245-1.9 4.245-4.244"/></defs></svg>
