<svg version="1.1" viewBox="0 0 1000 800" xmlns="http://www.w3.org/2000/svg"><g transform="scale(25)"><path d="m20 4.923h-17.5c-1.38 0-2.5 1.063-2.5 2.422v22.193c0 1.359 1.12 2.462 2.5 2.462h35c1.38 0 2.5-1.103 2.5-2.462v-24.615z" fill="#ffd42a"/><path d="m40 2.462c0-1.359-1.12-2.462-2.5-2.462h-12.5c-1.38 0-2.5 1.103-2.5 2.462 0 0-0.325 2.257-2.5 2.461h20z" fill="#d4aa00"/><path d="m6.7899 19.944h-0.23922q-1.198 0-1.6897 0.60514v3.8323h-2.0168v-6.1772h1.9544v1.0335q0.17682-0.50397 0.54179-0.79425 0.36592-0.29028 0.95783-0.29028 0.17682 0 0.29028 0.02553 0.12576 0.01229 0.25246 0.05011zm4.1112 3.8323q-0.29028 0.29028-0.79425 0.51721-0.49168 0.21464-1.0845 0.21464-0.41604 0-0.74414-0.13899-0.3281-0.13899-0.55503-0.37822-0.21464-0.23922-0.34039-0.55503-0.11346-0.3281-0.11346-0.69308 0-0.8576 0.5295-1.2859 0.54179-0.44157 1.5251-0.51721 0.36592-0.02553 0.76872-0.03782 0.41604-0.01229 0.7309-0.02553v-0.2014q0-1.0089-1.1224-1.0089-0.44157 0-0.8576 0.10117-0.40374 0.10117-0.74414 0.27704l-0.36592-1.3994q0.44157-0.25246 1.0335-0.40374 0.60514-0.16358 1.3115-0.16358 1.2982 0 2.0301 0.68079 0.7309 0.66849 0.7309 2.0168v3.6053h-1.9412zm-1.0968-0.59285q0.29028 0 0.54179-0.07564 0.26475-0.07564 0.47939-0.2014v-0.92001q-0.30257 0.02553-0.54179 0.06335-0.23922 0.02553-0.46615 0.05011-0.61743 0.07564-0.61743 0.57961 0 0.22693 0.15129 0.36592 0.16358 0.13899 0.45386 0.13899zm8.4105-3.2394h-0.23922q-1.198 0-1.6897 0.60514v3.8323h-2.0168v-6.1772h1.9544v1.0335q0.17682-0.50397 0.54179-0.79425 0.36592-0.29028 0.95783-0.29028 0.17682 0 0.29028 0.02553 0.12576 0.01229 0.25246 0.05011zm1.0458-6.5942q1.5356-0.93514 3.3179-0.93514 0.81222 0 1.5176 0.24678 0.70632 0.22976 1.2178 0.68835 0.5295 0.44156 0.82924 1.112t0.29974 1.5176q0 0.68835-0.17682 1.2888-0.17682 0.60042-0.49452 1.1469-0.29974 0.5295-0.70632 1.024-0.40564 0.47655-0.8472 0.93513-0.47655 0.49452-0.98808 0.9531-0.49452 0.44156-0.90015 0.79425h4.183v2.2589h-7.4839l-0.4236-1.6235q0.47655-0.49452 0.8472-0.86516 0.37065-0.38862 0.68835-0.72334 0.33566-0.33566 0.6354-0.65336t0.6354-0.68835q0.37065-0.40564 0.75926-0.82924 0.38862-0.44157 0.68835-0.90015 0.3177-0.45858 0.51154-0.91812 0.2118-0.45858 0.2118-0.91812 0-0.70631-0.4236-1.1299t-1.1829-0.4236q-0.54746 0-1.024 0.15885-0.47655 0.15885-0.98808 0.45858zm9.2076 11.032v-4.6397h-0.95783v-1.5374h0.95783v-0.17682q0-1.3739 0.71861-2.0168 0.71861-0.65526 1.9034-0.65526 0.30257 0 0.61744 0.05011 0.3281 0.03782 0.60514 0.15129l-0.15129 1.4372q-0.30257-0.08794-0.65526-0.08794-0.47939 0-0.75643 0.22693-0.26475 0.22693-0.26475 0.80654v0.26475h1.4117v1.5384h-1.4117v4.6397zm8.6876-2.0168q0 0.51721-0.2014 0.92001-0.18911 0.40374-0.55503 0.68079-0.35268 0.26475-0.84436 0.40374-0.49168 0.13899-1.0845 0.13899-0.50397 0-1.059-0.10117-0.55503-0.08793-1.0089-0.27704l0.27704-1.3994q0.39051 0.16358 0.8576 0.25246 0.47939 0.07564 0.83207 0.07564 0.36592 0 0.63067-0.10117 0.27704-0.11346 0.27704-0.36592 0-0.22693-0.23922-0.31486-0.23922-0.10117-0.71861-0.27704-0.39051-0.13899-0.7309-0.30257-0.34039-0.17682-0.59285-0.40374-0.23922-0.23922-0.37821-0.54179-0.13899-0.30257-0.13899-0.70632 0-1.0089 0.68078-1.4873 0.68079-0.47939 1.7776-0.47939 0.57961 0 1.059 0.11346 0.47939 0.10117 0.92001 0.35268l-0.27704 1.3238q-0.34039-0.15129-0.71861-0.23922-0.37822-0.10117-0.79425-0.10117-0.36592 0-0.56732 0.07564-0.18911 0.06335-0.18911 0.27704 0 0.21464 0.22693 0.31486 0.23922 0.08794 0.60514 0.22693 0.27704 0.10117 0.61743 0.25246 0.34039 0.13899 0.63067 0.36592 0.30257 0.22693 0.50397 0.55503 0.2014 0.31486 0.2014 0.76872z" fill="#4f5d73" stroke-width=".94554"/></g></svg>
