<svg version="1.1" viewBox="0 0 1000 1000.9" xmlns="http://www.w3.org/2000/svg"><g transform="scale(4.6147)"><g fill-rule="evenodd"><path d="m216.7 108.45c0 29.833-10.533 55.4-31.6 76.7a17.05 17.05 0 0 1-2.35 2.3c-3.466 3.4-7.133 6.484-11 9.25-18.267 13.467-39.367 20.2-63.3 20.2-23.967 0-45.033-6.733-63.2-20.2-4.8-3.4-9.3-7.25-13.5-11.55-16.367-16.266-26.417-35.167-30.15-56.7-0.733-4.2-1.217-8.467-1.45-12.8a172.93 172.93 0 0 1-0.15-7.2c0-2.533 0.05-4.95 0.15-7.25 0-0.233 0.066-0.467 0.2-0.7 1.567-26.6 12.033-49.583 31.4-68.95 21.3-21.033 46.867-31.55 76.7-31.55 29.933 0 55.484 10.517 76.65 31.55 21.067 21.433 31.6 47.067 31.6 76.9z" fill="#eee"/><path d="m194.65 42.5-22.4 22.4c-13.098 13.098-14.25 24.5-14.25 44.6 0 17.934 2.852 34.352 16.2 47.7l19 18.95a126.35 126.35 0 0 1-8.1 9 17.05 17.05 0 0 1-2.35 2.3 90.6 90.6 0 0 1-7.9 6.95l-17.55-17.55c-15.598-15.6-27.996-17.1-48.6-17.1-19.77 0-33.223 1.822-47.7 16.3l-18.55 18.6c-3.767-2.867-7.333-6.034-10.7-9.5-2.8-2.8-5.417-5.667-7.85-8.6l19.15-19.2c13.852-13.853 16.1-29.916 16.1-47.85 0-17.5-2.874-33.823-15.6-46.55l-21.05-21a117.28 117.28 0 0 1 9.25-10.4c2.934-2.867 5.934-5.55 9-8.05l20.35 20.35c13.002 13.002 29.667 16.35 47.6 16.35 18.467 0 35.077-3.577 48.6-17.1l19.3-19.25c2.9 2.367 5.733 4.933 8.5 7.7 3.467 3.533 6.65 7.183 9.55 10.95z" fill="#3a3f51"/><path d="m78.7 114a31.57 31.57 0 0 1-0.4-3.55l-0.05-2 0.05-2a0.46 0.46 0 0 1 0.05-0.2c0.435-7.367 3.334-13.733 8.7-19.1 5.9-5.833 12.984-8.75 21.25-8.75 8.3 0 15.384 2.917 21.25 8.75 5.834 5.934 8.75 13.033 8.75 21.3s-2.916 15.35-8.75 21.25c-0.2 0.233-0.416 0.45-0.65 0.65-0.966 0.933-1.982 1.783-3.05 2.55-5.065 3.733-10.916 5.6-17.55 5.6s-12.466-1.866-17.5-5.6a26.29 26.29 0 0 1-3.75-3.2c-4.532-4.5-7.316-9.734-8.35-15.7z" fill="#0cf"/></g><g fill="none" stroke="#0cf" stroke-miterlimit="1"><path d="m157.8 59.75-15 14.65m-112.02-41.874 40.865 40.724m84.6 84.25 27.808 28.78m1.855-153.89-28.113 27.364m-125.45 126 27.35-27.4" stroke-width="2"/><path d="m157.8 59.75-16.95 17.2m-81.88-16.346 17.2 17.15m-16.547 80.676 16.75-17.4m61.928-1.396 18.028 17.945" stroke-width="7"/></g></g></svg>
