<svg width="1e3" height="452.28" version="1.1" viewBox="-1.005 -1.005 1e3 452.28" xmlns="http://www.w3.org/2000/svg"><g transform="matrix(4.9999 0 0 4.9999 4.0299 4.0199)"><path d="m180.32 42.979-23.237-5.394-4.149-1.66-106.64 0.83v51.453l134.03 0.415z" fill="#fff"/><path d="m136.76 83.643c1.245-4.149 0.83-8.299-1.245-10.788s-4.979-4.149-8.714-4.564l-72.2-0.83c-0.415 0-0.83-0.415-1.245-0.415-0.415-0.415-0.415-0.83 0-1.245 0.415-0.83 0.83-1.245 1.66-1.245l72.614-0.83c8.714-0.415 17.842-7.469 21.162-15.768l4.149-10.788c0-0.415 0.415-0.83 0-1.245-4.564-21.162-23.652-36.93-46.058-36.93-20.747 0-38.589 13.278-44.814 31.95-4.149-2.905-9.129-4.564-14.938-4.149-9.959 0.83-17.842 9.129-19.087 19.087-0.415 2.49 0 4.979 0.415 7.469-16.183 0.415-29.461 13.693-29.461 30.291 0 1.66 0 2.905 0.415 4.564 0 0.83 0.83 1.245 1.245 1.245h133.2c0.83 0 1.66-0.415 1.66-1.245z" fill="#f48120"/><path d="m159.58 37.169h-2.075c-0.415 0-0.83 0.415-1.245 0.83l-2.905 9.959c-1.245 4.149-0.83 8.299 1.245 10.788s4.979 4.149 8.714 4.564l15.353 0.83c0.415 0 0.83 0.415 1.245 0.415 0.415 0.415 0.415 0.83 0 1.245-0.415 0.83-0.83 1.245-1.66 1.245l-15.768 0.83c-8.714 0.415-17.842 7.469-21.162 15.768l-0.83 3.734c-0.415 0.415 0 1.245 0.83 1.245h54.772c0.83 0 1.245-0.415 1.245-1.245 0.83-3.32 1.66-7.054 1.66-10.788 0-21.577-17.842-39.419-39.419-39.419" fill="#faad3f"/></g></svg>
