<svg version="1.1" viewBox="0 0 1000 800" xmlns="http://www.w3.org/2000/svg"><g transform="scale(25)"><path d="m20 4.923h-17.5c-1.38 0-2.5 1.063-2.5 2.422v22.193c0 1.359 1.12 2.462 2.5 2.462h35c1.38 0 2.5-1.103 2.5-2.462v-24.615z" fill="#ffd42a"/><path d="m40 2.462c0-1.359-1.12-2.462-2.5-2.462h-12.5c-1.38 0-2.5 1.103-2.5 2.462 0 0-0.325 2.257-2.5 2.461h20z" fill="#d4aa00"/><path d="m24.999 25.42s-6.967-1.361-6.967-12.193v14.37" fill="none" stroke="#4f5d73" stroke-linecap="round" stroke-miterlimit="10" stroke-width="2.613"/><path d="m14.303 14.098c-0.641 0-0.82-0.474-0.398-1.053l3.359-4.609c0.422-0.579 1.113-0.579 1.535 0l3.359 4.609c0.422 0.579 0.243 1.053-0.398 1.053z" fill="#4f5d73"/></g></svg>
