<svg width="1e3" height="930.15" version="1.1" viewBox="-14.89 -13.85 1e3 930.15" xmlns="http://www.w3.org/2000/svg"><defs><clipPath id="a"><path d="m-14.89-13.85h597.9v556.14h-597.9z"/></clipPath></defs><g transform="matrix(1.6725 0 0 1.6725 10.014 9.3144)" clip-path="url(#a)"><g fill="#532297"><path d="m159.57 311.78-0.324-0.452-63.367 44.816c-21.356-30.234-33.906-67.121-33.906-106.92 0-102.45 83.175-185.62 185.62-185.62 17.251 0 33.956 2.359 49.809 6.771l-0.02 0.07c38.58 11.336 61.292 51.52 50.828 90.571-2.45 9.145-6.507 17.434-11.787 24.644l0.566 0.788 62.346-44.102c21.34 30.227 33.881 67.101 33.881 106.88 0 102.45-83.175 185.62-185.62 185.62-16.962 0-33.396-2.28-49.011-6.55l4e-3 -0.015c-39.054-11.02-62.145-51.482-51.61-90.797 2.572-9.601 6.915-18.258 12.591-25.708zm306.26 82.679 117.18 117.18-114.38 30.649-75.332-75.332c-41.695 27.896-91.812 44.17-145.7 44.17-144.87 0-262.49-117.62-262.49-262.49s117.62-262.49 262.49-262.49 262.49 117.62 262.49 262.49c0 53.94-16.306 104.1-44.253 145.82z" fill-rule="evenodd"/><path d="m342.56 264.03-126.26 72.897c-7.169 4.139-12.99 0.778-12.99-7.5v-145.79c0-8.279 5.821-11.639 12.99-7.5l126.26 72.896c7.17 4.14 7.17 10.861 0 15z"/></g></g></svg>
