<svg xmlns="http://www.w3.org/2000/svg" version="1.1" xmlns:xlink="http://www.w3.org/1999/xlink" width="1000" height="1000"><style>
    #light-icon {
      display: inline;
    }
    #dark-icon {
      display: none;
    }

    @media (prefers-color-scheme: dark) {
      #light-icon {
        display: none;
      }
      #dark-icon {
        display: inline;
      }
    }
  </style><g id="light-icon"><svg xmlns="http://www.w3.org/2000/svg" version="1.1" xmlns:xlink="http://www.w3.org/1999/xlink" width="1000" height="1000"><g><g transform="matrix(1,0,0,1,0,0)"><svg xmlns="http://www.w3.org/2000/svg" version="1.1" xmlns:xlink="http://www.w3.org/1999/xlink" width="1000" height="1000"><svg enable-background="new 0 0 512.084 512.084" version="1.1" viewBox="0 0 1e3 1e3" xmlns="http://www.w3.org/2000/svg">
 <g transform="translate(.0049976 .0049976)" display="none">
  <g transform="matrix(1.6519,0,0,1.6519,-687.23,-316.85)" fill="#48423e" style="shape-inside:url(#rect841);white-space:pre" aria-label="io">
   <rect x="416.03" y="191.81" width="423.83" height="423.83" stroke-width="1.072"></rect>
   <rect x="416.03" y="191.81" width="423.83" height="423.83" rx="60.547" stroke-width=".60547"></rect>
  </g>
 </g>
 <circle cx="499.99" cy="499.99" r="499.99" fill="#3c3f44" stroke-width="1.4283" style="shape-inside:url(#rect841);white-space:pre"></circle>
 <g transform="matrix(2.3594 0 0 2.3594 -767.54 -318.28)" fill="#ffb64c" style="shape-inside:url(#rect841);white-space:pre">
  <g transform="matrix(.60537 0 0 .60537 382.22 191.81)">
   <path d="m260.48 3.53c-2.93-2.46-6.33-3.55-9.64-3.53-7.71 0.05-15 6.13-15 15.02 0 166.4-180 173.23-180 332 0 96.91 92.73 159.85 96.68 162.48 11.59 7.73 26.56-3.23 22.74-16.6-23.52-82.34-20.84-167.84 42.61-225.83-11.36 41.89-1.34 75.74 32.97 90.63 25.47 11.06 58.79 9.22 86.36 5.08 30.88 27.25 8.78 90.43-9.78 127.53-6.85 13.71 9.03 27.67 21.74 19.19 67.22-44.81 103.15-101.06 106.79-167.2 7.34-133.39-123.54-278.43-195.47-338.77z" fill="#ffdf8e"></path>
   <path d="m455.95 342.3c-3.64 66.14-39.57 122.39-106.79 167.2-12.71 8.48-28.59-5.48-21.74-19.19 18.56-37.1 40.66-100.28 9.78-127.53-27.57 4.14-60.89 5.98-86.36-5.08v-357.7c3.31-0.02 6.71 1.07 9.64 3.53 71.93 60.34 202.81 205.38 195.47 338.77z" fill="#ffb64c"></path>
  </g>
  <path d="m508.38 476.01v-32.517h-16.984v-9.8149h29.53v42.332zm5.7183-48.989q-3.6699 0-6.0597-2.0483-2.3044-2.0483-2.3044-5.5476 0-3.4992 2.3044-5.6329 2.3897-2.219 6.0597-2.219 3.6699 0 5.9743 2.219 2.3897 2.1337 2.3897 5.6329t-2.3897 5.5476q-2.3044 2.0483-5.9743 2.0483z" fill="#ffb64c"></path>
  <path d="m561.46 477.04q-4.182 0-8.108-1.4509-3.8406-1.5362-6.9131-4.3527-2.9872-2.8165-4.7794-6.9131-1.7923-4.182-1.7923-9.4736 0-5.2915 1.7923-9.3882 1.7923-4.182 4.7794-6.9985 3.0725-2.8165 6.9131-4.2674 3.926-1.5362 8.108-1.5362t8.0226 1.5362q3.926 1.4509 6.9131 4.2674 3.0725 2.8165 4.8648 6.9985 1.7923 4.0967 1.7923 9.3882t-1.7923 9.4736q-1.7923 4.0967-4.8648 6.9131-2.9872 2.8165-6.9131 4.3527-3.8406 1.4509-8.0226 1.4509zm0-10.156q4.3527 0 6.4864-3.2432 2.219-3.2432 2.219-8.7908t-2.219-8.7908q-2.1337-3.2432-6.4864-3.2432t-6.5717 3.2432q-2.1337 3.2432-2.1337 8.7908t2.1337 8.7908q2.219 3.2432 6.5717 3.2432z" fill="#ffdf8e"></path>
 </g>
</svg></svg></g></g></svg></g><g id="dark-icon"><svg xmlns="http://www.w3.org/2000/svg" version="1.1" xmlns:xlink="http://www.w3.org/1999/xlink" width="1000" height="1000"><g><g transform="matrix(0.781921964187974,0,0,0.781921964187974,109.03901790601299,0)"><svg xmlns="http://www.w3.org/2000/svg" version="1.1" xmlns:xlink="http://www.w3.org/1999/xlink" width="1000" height="1278.9"><svg version="1.1" viewBox="0 0 1000 1278.9" xmlns="http://www.w3.org/2000/svg"><g transform="matrix(4.1255 0 0 4.1255 -1716.3 -791.31)" fill="#ffb64c"><path d="m539.91 193.95c-1.774-1.489-3.832-2.149-5.836-2.137-4.667 0.03-9.081 3.711-9.081 9.093 0 100.73-108.97 104.87-108.97 200.98 0 58.666 56.136 96.768 58.527 98.361 7.016 4.68 16.079-1.955 13.766-10.049-14.238-49.846-12.616-101.6 25.795-136.71-6.877 25.359-0.811 45.851 19.959 54.865 15.419 6.695 35.59 5.582 52.28 3.075 18.694 16.496 5.315 54.744-5.921 77.203-4.147 8.3 5.466 16.751 13.161 11.617 40.693-27.127 62.444-61.179 64.647-101.22 4.443-80.75-74.787-168.55-118.33-205.08z" fill="#ffdf8e"></path><path d="m658.24 399.03c-2.204 40.039-23.954 74.091-64.647 101.22-7.694 5.134-17.308-3.317-13.161-11.617 11.236-22.459 24.614-60.707 5.921-77.203-16.69 2.506-36.861 3.62-52.28-3.075v-216.54c2.004-0.012 4.062 0.648 5.836 2.137 43.544 36.528 122.78 124.33 118.33 205.08zm-149.86 76.982v-32.517h-16.984v-9.815h29.53v42.332zm5.718-48.989q-3.67 0-6.06-2.048-2.304-2.048-2.304-5.548 0-3.499 2.304-5.633 2.39-2.219 6.06-2.219t5.974 2.219q2.39 2.134 2.39 5.633t-2.39 5.548q-2.304 2.048-5.974 2.048z"></path><path d="m561.46 477.04q-4.182 0-8.108-1.451-3.841-1.536-6.913-4.353-2.987-2.817-4.779-6.913-1.792-4.182-1.792-9.474 0-5.291 1.792-9.388 1.792-4.182 4.779-6.998 3.072-2.817 6.913-4.267 3.926-1.536 8.108-1.536t8.023 1.536q3.926 1.451 6.913 4.267 3.072 2.817 4.865 6.998 1.792 4.097 1.792 9.388t-1.792 9.474q-1.792 4.097-4.865 6.913-2.987 2.817-6.913 4.353-3.841 1.451-8.023 1.451zm0-10.156q4.353 0 6.486-3.243 2.219-3.243 2.219-8.791t-2.219-8.791q-2.134-3.243-6.486-3.243-4.353 0-6.572 3.243-2.134 3.243-2.134 8.791t2.134 8.791q2.219 3.243 6.572 3.243z" fill="#ffdf8e"></path></g></svg></svg></g></g></svg></g></svg>