<svg fill="#7289da" version="1.1" viewBox="0 0 1000 273.29" xmlns="http://www.w3.org/2000/svg"><path d="m145.95 114.66c-7.8556 0-14.057 6.753-14.057 15.16 0 8.4068 6.3396 15.16 14.057 15.16 7.8556 0 14.057-6.753 14.057-15.16 0-8.4068-6.3396-15.16-14.057-15.16zm-50.303 0c-7.8556 0-14.057 6.753-14.057 15.16 0 8.4068 6.3396 15.16 14.057 15.16 7.8556 0 14.057-6.753 14.057-15.16 0.13781-8.4068-6.2018-15.16-14.057-15.16zm117.28-114.66h-184.67c-15.573 0-28.252 12.679-28.252 28.252v184.67c0 15.573 12.679 28.252 28.252 28.252h156.28l-7.3043-25.22 17.641 16.262 16.676 15.298 29.768 25.772v-245.04c-0.13782-15.573-12.817-28.252-28.39-28.252zm-53.197 178.47-9.0959-11.025c18.054-5.0992 24.945-16.262 24.945-16.262-5.6505 3.721-11.025 6.3396-15.849 8.1312-6.8908 2.8942-13.506 4.6858-19.983 5.9261-13.23 2.4807-25.358 1.7916-35.695-0.13782-7.8556-1.516-14.609-3.5832-20.259-5.9261-3.1698-1.2404-6.6152-2.7563-10.061-4.6858-0.41345-0.27563-0.8269-0.41345-1.2404-0.68908-0.27563-0.13782-0.41345-0.27564-0.55127-0.27564-2.4807-1.3782-3.8589-2.3429-3.8589-2.3429s6.6152 10.888 24.118 16.125c-4.1345 5.237-9.2337 11.301-9.2337 11.301-30.458-0.96471-42.034-20.81-42.034-20.81 0-43.964 19.846-79.658 19.846-79.658 19.846-14.746 38.589-14.333 38.589-14.333l1.3782 1.6538c-24.807 7.0287-36.108 17.916-36.108 17.916s3.032-1.6538 8.1312-3.8589c14.746-6.4774 26.461-8.1312 31.284-8.6825 0.8269-0.13782 1.516-0.27563 2.3429-0.27563 8.4068-1.1025 17.916-1.3782 27.839-0.27563 13.093 1.516 27.15 5.3749 41.483 13.093 0 0-10.888-10.336-34.316-17.365l1.9294-2.2051s18.881-0.41345 38.589 14.333c0 0 19.846 35.695 19.846 79.658 0-0.13782-11.577 19.708-42.034 20.673zm208.1-119.49h-45.755v51.406l30.458 27.426v-49.89h16.262c10.336 0 15.436 4.9614 15.436 12.955v38.175c0 7.9934-4.8236 13.368-15.436 13.368h-46.858v29.079h45.755c24.531 0.13782 47.547-12.128 47.547-40.243v-41.069c0.13781-28.666-22.878-41.207-47.409-41.207zm239.8 82.277v-42.172c0-15.16 27.288-18.605 35.557-3.4454l25.221-10.198c-9.9228-21.775-27.977-28.115-42.999-28.115-24.531 0-48.787 14.195-48.787 41.759v42.172c0 27.839 24.256 41.759 48.236 41.759 15.436 0 33.903-7.5799 44.101-27.426l-27.012-12.404c-6.6152 16.951-34.316 12.817-34.316-1.9294zm-83.379-36.384c-9.5094-2.0672-15.849-5.5127-16.262-11.439 0.55127-14.195 22.464-14.746 35.281-1.1025l20.259-15.573c-12.679-15.436-27.012-19.57-41.759-19.57-22.464 0-44.239 12.679-44.239 36.659 0 23.291 17.916 35.832 37.624 38.864 10.061 1.3782 21.224 5.3749 20.948 12.266-0.8269 13.093-27.839 12.404-40.105-2.4807l-19.57 18.33c11.439 14.746 27.012 22.189 41.621 22.189 22.464 0 47.409-12.955 48.374-36.659 1.3782-29.906-20.397-37.486-42.172-41.483zm-92.337 76.488h30.871v-122.38h-30.871zm520.53-122.38h-45.755v51.406l30.458 27.426v-49.89h16.262c10.336 0 15.436 4.9614 15.436 12.955v38.175c0 7.9934-4.8236 13.368-15.436 13.368h-46.858v29.079h45.893c24.531 0.13782 47.547-12.128 47.547-40.243v-41.069c0-28.666-23.015-41.207-47.547-41.207zm-224.5-1.6538c-25.358 0-50.579 13.782-50.579 42.034v41.759c0 27.977 25.358 42.034 50.854 42.034 25.358 0 50.579-14.057 50.579-42.034v-41.759c0-28.115-25.496-42.034-50.854-42.034zm19.846 83.793c0 8.8203-9.9228 13.368-19.708 13.368-9.9228 0-19.846-4.2723-19.846-13.368v-41.759c0-8.9581 9.6472-13.782 19.294-13.782 10.061 0 20.259 4.2723 20.259 13.782zm141.81-41.759c-0.68909-28.666-20.259-40.243-45.48-40.243h-48.925v122.38h31.284v-38.864h5.5127l28.39 38.864h38.589l-33.352-42.034c14.746-4.6858 23.98-17.503 23.98-40.105zm-44.928 16.538h-18.192v-27.977h18.192c19.432 0 19.432 27.977 0 27.977z" stroke-width="1.3782"/></svg>
