<svg version="1.1" viewBox="0 0 1000 1194.2" xmlns="http://www.w3.org/2000/svg"><g transform="matrix(44.262 0 0 44.262 -.0088303 .00061429)"><path d="m10.374 0.172c-0.143-0.12-0.308-0.173-0.469-0.172-0.375 2e-3 -0.731 0.299-0.731 0.731 0 8.104-8.766 8.436-8.766 16.169 0 4.72 4.516 7.785 4.708 7.913 0.564 0.376 1.293-0.157 1.107-0.808-1.145-4.01-1.015-8.174 2.075-10.998-0.553 2.04-0.065 3.689 1.606 4.414 1.24 0.539 2.863 0.449 4.206 0.247 1.504 1.327 0.428 4.404-0.476 6.211-0.334 0.668 0.44 1.348 1.059 0.935 3.274-2.182 5.024-4.922 5.201-8.143 0.357-6.496-6.017-13.56-9.52-16.498z" fill="#ffdf8e"/><path d="m19.894 16.671c-0.177 3.221-1.927 5.961-5.201 8.143-0.619 0.413-1.392-0.267-1.059-0.935 0.904-1.807 1.98-4.884 0.476-6.211-1.343 0.202-2.965 0.291-4.206-0.247v-17.421c0.161-1e-3 0.327 0.052 0.469 0.172 3.503 2.939 9.877 10.002 9.52 16.498z" fill="#ffb64c"/><path d="m22.539 20.417a7 7 0 0 1-0.63 2.2 6.89 6.89 0 0 1-1.1 1.65 7 7 0 0 1-5.21 2.33h-8.6a7 7 0 0 1-5.21-2.33 6.89 6.89 0 0 1-1.1-1.67 7 7 0 0 1-0.63-2.2 6.5 6.5 0 0 1 0-1.59l0.66-6a6.23 6.23 0 0 1 0.3-1.36 7 7 0 0 1 2.2-3.25 6.11 6.11 0 0 1 0.93-0.6 6.81 6.81 0 0 1 3.52-1h7.26a7 7 0 0 1 6.66 4.87 6.23 6.23 0 0 1 0.3 1.36l0.66 6a6.5 6.5 0 0 1-0.01 1.59z" fill="#aeaeae"/><path d="m3.009 18.887 2.29 2.3 0.08-0.08a21.25 21.25 0 0 1-1.47-6.51l-1.61-1.59-1.81 1.82-0.44 4a6.5 6.5 0 0 0 0 1.59l1.53-1.53a1 1 0 0 1 1.43 0zm1.58 4.42-2.29-2.3-1.61 1.59a6.89 6.89 0 0 0 1.1 1.65 7 7 0 0 0 5.21 2.35h2.75a11.4 11.4 0 0 1-3.45-3.62l-0.33 0.33a1 1 0 0 1-1.38 0zm-1.58-12.42 0.82 0.82a34 34 0 0 1 0.32-4.11 6.11 6.11 0 0 0-0.94 0.66 7 7 0 0 0-2.2 3.25l0.58-0.58a1 1 0 0 1 1.42-0.04z" fill="#90837c"/><path d="m3.909 14.597 0.68 0.68a1 1 0 0 0 1.42 0l2.29-2.27 2.29 2.3a1 1 0 0 0 1.42 0l2.29-2.3 2.29 2.3a1 1 0 0 0 1.42 0l2.29-2.3 1.81 1.82-0.22-2a6.23 6.23 0 0 0-0.3-1.36l-0.58-0.58a1 1 0 0 0-1.42 0l-2.29 2.3-2.29-2.3a1 1 0 0 0-1.42 0l-2.29 2.3-2.29-2.3a1 1 0 0 0-1.42 0l-2.29 2.3-1.47-1.48a28.74 28.74 0 0 0 0.08 2.89z" fill="#cecece"/><path d="m3.909 14.597c-0.08-1-0.1-2-0.08-2.92l-0.82-0.82a1 1 0 0 0-1.42 0l-0.58 0.58a6.23 6.23 0 0 0-0.3 1.36l-0.22 2 1.81-1.79z" fill="#aeaeae"/><path d="m21.009 18.887a1 1 0 0 0-1.42 0l-2.29 2.3-2.29-2.3a1 1 0 0 0-1.42 0l-2.29 2.3-2.29-2.3a1 1 0 0 0-1.42 0l-2.21 2.22a13.76 13.76 0 0 0 1 1.87l2-2 2.29 2.3a1 1 0 0 0 1.42 0l2.21-2.27 2.29 2.3a1 1 0 0 0 1.42 0l2.29-2.3 1.61 1.59a7 7 0 0 0 0.63-2.2z" fill="#cecece"/><path d="m11.299 23.597a3.69 3.69 0 0 1-3.32-2.34l-0.09-0.21a1.07 1.07 0 0 1 0.41-1.34 0.83 0.83 0 0 1 1.18 0.44l0.09 0.21a1.85 1.85 0 0 0 3.5 0l0.09-0.21a0.83 0.83 0 0 1 1.14-0.44 1.07 1.07 0 0 1 0.39 1.34l-0.09 0.21a3.69 3.69 0 0 1-3.3 2.34z" fill="#90837c"/><path d="m11.299 22.597a4.22 4.22 0 0 1-3.79-2.34l-0.1-0.21a1 1 0 0 1 1.78-0.9l0.11 0.21a2.23 2.23 0 0 0 4 0l0.11-0.21a1 1 0 1 1 1.78 0.9l-0.1 0.21a4.22 4.22 0 0 1-3.79 2.34z" fill="#48423e"/><path d="m5.299 21.187-2.29-2.3a1 1 0 0 0-1.42 0l-1.53 1.53a7 7 0 0 0 0.63 2.18l1.61-1.59 2.29 2.3a1 1 0 0 0 1.42 0l0.33-0.33a13.76 13.76 0 0 1-1-1.87z" fill="#aeaeae"/><circle cx="16.299" cy="14.597" r="4" fill="#90837c"/><circle cx="16.299" cy="13.597" r="4" fill="#fff"/><circle cx="16.299" cy="13.597" r="3" fill="#e5b48b"/><circle cx="16.299" cy="13.597" r="2" fill="#48423e"/><circle cx="17.299" cy="12.597" r="1" fill="#fff"/><circle cx="6.299" cy="14.597" r="4" fill="#90837c"/><circle cx="6.299" cy="13.597" r="4" fill="#fff"/><circle cx="6.299" cy="13.597" r="3" fill="#e5b48b"/><circle cx="6.299" cy="13.597" r="2" fill="#48423e"/><circle cx="7.299" cy="12.597" r="1" fill="#fff"/></g><g stroke-width="27.692"><path d="m195.39 787.06c0 109.77 127.27 249.23 304.61 249.23s304.61-138.46 304.61-249.23c0 0-286.14 76.319-609.23 0z" fill="#48423e"/><path d="m515.09 851.89-30.212-0.13846c-89.058-2.0492-151.03-16.504-151.03-16.504v192.76c0 83.076 55.384 166.15 166.15 166.15s166.15-83.076 166.15-166.15v-191.63c-53.224 10.938-104.87 15.037-151.06 15.508z" fill="#e8596e"/><path d="m500 1080.1c8.3353 0 15.092-6.7569 15.092-15.092v-213.06l-30.212-0.13846v213.2c0.0277 8.3353 6.7846 15.092 15.12 15.092z" fill="#dd2f45"/></g></svg>
