<svg xmlns="http://www.w3.org/2000/svg" viewBox="0 0 1000 1177.2"  xmlns:v="https://vecta.io/nano"><g transform="matrix(44.262 0 0 44.262 -.00883 .000614)"><path d="M10.374.172c-.143-.12-.308-.173-.469-.172-.375.002-.731.299-.731.731C9.174 8.835.408 9.167.408 16.9c0 4.72 4.516 7.785 4.708 7.913.564.376 1.293-.157 1.107-.808-1.145-4.01-1.015-8.174 2.075-10.998-.553 2.04-.065 3.689 1.606 4.414 1.24.539 2.863.449 4.206.247 1.504 1.327.428 4.404-.476 6.211-.334.668.44 1.348 1.059.935 3.274-2.182 5.024-4.922 5.201-8.143.357-6.496-6.017-13.56-9.52-16.498z" fill="#ffdf8e"/><path d="M19.894 16.671c-.177 3.221-1.927 5.961-5.201 8.143-.619.413-1.392-.267-1.059-.935.904-1.807 1.98-4.884.476-6.211-1.343.202-2.965.291-4.206-.247V0c.161-.001.327.052.469.172 3.503 2.939 9.877 10.002 9.52 16.498z" fill="#ffb64c"/><path d="M22.539 20.417a7 7 0 0 1-.63 2.2 6.89 6.89 0 0 1-1.1 1.65 7 7 0 0 1-5.21 2.33h-8.6a7 7 0 0 1-5.21-2.33 6.89 6.89 0 0 1-1.1-1.67 7 7 0 0 1-.63-2.2 6.5 6.5 0 0 1 0-1.59l.66-6a6.23 6.23 0 0 1 .3-1.36 7 7 0 0 1 2.2-3.25 6.11 6.11 0 0 1 .93-.6 6.81 6.81 0 0 1 3.52-1h7.26a7 7 0 0 1 6.66 4.87 6.23 6.23 0 0 1 .3 1.36l.66 6a6.5 6.5 0 0 1-.01 1.59z" fill="#aeaeae"/><path d="M3.009 18.887l2.29 2.3.08-.08a21.25 21.25 0 0 1-1.47-6.51l-1.61-1.59-1.81 1.82-.44 4a6.5 6.5 0 0 0 0 1.59l1.53-1.53a1 1 0 0 1 1.43 0zm1.58 4.42l-2.29-2.3-1.61 1.59a6.89 6.89 0 0 0 1.1 1.65 7 7 0 0 0 5.21 2.35h2.75a11.4 11.4 0 0 1-3.45-3.62l-.33.33a1 1 0 0 1-1.38 0zm-1.58-12.42l.82.82a34 34 0 0 1 .32-4.11 6.11 6.11 0 0 0-.94.66 7 7 0 0 0-2.2 3.25l.58-.58a1 1 0 0 1 1.42-.04z" fill="#90837c"/><path d="M3.909 14.597l.68.68a1 1 0 0 0 1.42 0l2.29-2.27 2.29 2.3a1 1 0 0 0 1.42 0l2.29-2.3 2.29 2.3a1 1 0 0 0 1.42 0l2.29-2.3 1.81 1.82-.22-2a6.23 6.23 0 0 0-.3-1.36l-.58-.58a1 1 0 0 0-1.42 0l-2.29 2.3-2.29-2.3a1 1 0 0 0-1.42 0l-2.29 2.3-2.29-2.3a1 1 0 0 0-1.42 0l-2.29 2.3-1.47-1.48a28.74 28.74 0 0 0 .08 2.89z" fill="#cecece"/><path d="M3.909 14.597c-.08-1-.1-2-.08-2.92l-.82-.82a1 1 0 0 0-1.42 0l-.58.58a6.23 6.23 0 0 0-.3 1.36l-.22 2 1.81-1.79z" fill="#aeaeae"/><path d="M21.009 18.887a1 1 0 0 0-1.42 0l-2.29 2.3-2.29-2.3a1 1 0 0 0-1.42 0l-2.29 2.3-2.29-2.3a1 1 0 0 0-1.42 0l-2.21 2.22a13.76 13.76 0 0 0 1 1.87l2-2 2.29 2.3a1 1 0 0 0 1.42 0l2.21-2.27 2.29 2.3a1 1 0 0 0 1.42 0l2.29-2.3 1.61 1.59a7 7 0 0 0 .63-2.2z" fill="#cecece"/><path d="M11.299 23.597a3.69 3.69 0 0 1-3.32-2.34l-.09-.21a1.07 1.07 0 0 1 .41-1.34.83.83 0 0 1 1.18.44l.09.21a1.85 1.85 0 0 0 3.5 0l.09-.21a.83.83 0 0 1 1.14-.44 1.07 1.07 0 0 1 .39 1.34l-.09.21a3.69 3.69 0 0 1-3.3 2.34z" fill="#90837c"/><path d="M11.299 22.597a4.22 4.22 0 0 1-3.79-2.34l-.1-.21a1 1 0 0 1 1.78-.9l.11.21a2.23 2.23 0 0 0 4 0l.11-.21a1 1 0 1 1 1.78.9l-.1.21a4.22 4.22 0 0 1-3.79 2.34z" fill="#48423e"/><path d="M5.299 21.187l-2.29-2.3a1 1 0 0 0-1.42 0l-1.53 1.53a7 7 0 0 0 .63 2.18l1.61-1.59 2.29 2.3a1 1 0 0 0 1.42 0l.33-.33a13.76 13.76 0 0 1-1-1.87z" fill="#aeaeae"/><circle cx="16.299" cy="14.597" r="4" fill="#90837c"/><circle cx="16.299" cy="13.597" r="4" fill="#fff"/><circle cx="16.299" cy="13.597" r="3" fill="#e5b48b"/><circle cx="16.299" cy="13.597" r="2" fill="#48423e"/><circle cx="17.299" cy="12.597" r="1" fill="#fff"/><circle cx="6.299" cy="14.597" r="4" fill="#90837c"/><circle cx="6.299" cy="13.597" r="4" fill="#fff"/><circle cx="6.299" cy="13.597" r="3" fill="#e5b48b"/><circle cx="6.299" cy="13.597" r="2" fill="#48423e"/><circle cx="7.299" cy="12.597" r="1" fill="#fff"/></g></svg>