<svg version="1.1" viewBox="0 0 1000 1196.1" xmlns="http://www.w3.org/2000/svg"><g stroke-width="44.262"><path d="m459.17 7.6137c-6.3295-5.3114-13.633-7.6573-20.759-7.6131-16.598 0.088524-32.356 13.234-32.356 32.356 0 358.7-388 373.39-388 715.67 0 208.92 199.89 344.58 208.39 350.25 24.964 16.642 57.231-6.9491 48.998-35.764-50.68-177.49-44.926-361.8 91.844-486.79-24.477 90.294-2.877 163.28 71.085 195.37 54.885 23.857 126.72 19.874 186.17 10.933 66.57 58.736 18.944 194.93-21.069 274.91-14.784 29.567 19.475 59.665 46.873 41.385 144.91-96.58 222.37-217.86 230.21-360.43 15.802-287.53-266.32-600.19-421.37-730.23z" fill="#ffdf8e"/><path d="m880.54 737.89c-7.8344 142.57-85.293 263.85-230.21 360.43-27.398 18.28-61.613-11.818-46.873-41.385 40.013-79.981 87.639-216.18 21.069-274.91-59.444 8.9409-131.24 12.88-186.17-10.933v-771.09c7.1262-0.044262 14.474 2.3016 20.759 7.6131 155.05 130.09 437.18 442.71 421.37 730.23z" fill="#ffb64c"/><path d="m997.61 903.7a309.83 309.83 0 0 1-27.885 97.376 304.97 304.97 0 0 1-48.688 73.032 309.83 309.83 0 0 1-230.61 103.13h-380.65a309.83 309.83 0 0 1-230.61-103.13 304.97 304.97 0 0 1-48.688-73.918 309.83 309.83 0 0 1-27.885-97.376 287.7 287.7 0 0 1 0-70.377l29.213-265.57a275.75 275.75 0 0 1 13.279-60.196 309.83 309.83 0 0 1 97.376-143.85 270.44 270.44 0 0 1 41.164-26.557 301.42 301.42 0 0 1 155.8-44.262h321.34a309.83 309.83 0 0 1 294.78 215.56 275.75 275.75 0 0 1 13.279 60.196l29.213 265.57a287.7 287.7 0 0 1-0.44262 70.377z" fill="#aeaeae"/><path d="m133.18 835.98 101.36 101.8 3.541-3.541a940.57 940.57 0 0 1-65.065-288.15l-71.262-70.377-80.114 80.557-19.475 177.05a287.7 287.7 0 0 0 0 70.377l67.721-67.721a44.262 44.262 0 0 1 63.295 0zm69.934 195.64-101.36-101.8-71.262 70.377a304.97 304.97 0 0 0 48.688 73.032 309.83 309.83 0 0 0 230.61 104.02h121.72a504.59 504.59 0 0 1-152.7-160.23l-14.606 14.606a44.262 44.262 0 0 1-61.082 0zm-69.934-549.73 36.295 36.295a1504.9 1504.9 0 0 1 14.164-181.92 270.44 270.44 0 0 0-41.606 29.213 309.83 309.83 0 0 0-97.376 143.85l25.672-25.672a44.262 44.262 0 0 1 62.852-1.7705z" fill="#90837c"/><path d="m173.01 646.09 30.098 30.098a44.262 44.262 0 0 0 62.852 0l101.36-100.47 101.36 101.8a44.262 44.262 0 0 0 62.852 0l101.36-101.8 101.36 101.8a44.262 44.262 0 0 0 62.852 0l101.36-101.8 80.114 80.557-9.7376-88.524a275.75 275.75 0 0 0-13.279-60.196l-25.672-25.672a44.262 44.262 0 0 0-62.852 0l-101.36 101.8-101.36-101.8a44.262 44.262 0 0 0-62.852 0l-101.36 101.8-101.36-101.8a44.262 44.262 0 0 0-62.852 0l-101.36 101.8-65.065-65.508a1272.1 1272.1 0 0 0 3.541 127.92z" fill="#cecece"/><path d="m173.01 646.09c-3.541-44.262-4.4262-88.524-3.541-129.25l-36.295-36.295a44.262 44.262 0 0 0-62.852 0l-25.672 25.672a275.75 275.75 0 0 0-13.279 60.196l-9.7376 88.524 80.114-79.229z" fill="#aeaeae"/><path d="m929.89 835.98a44.262 44.262 0 0 0-62.852 0l-101.36 101.8-101.36-101.8a44.262 44.262 0 0 0-62.852 0l-101.36 101.8-101.36-101.8a44.262 44.262 0 0 0-62.852 0l-97.819 98.262a609.05 609.05 0 0 0 44.262 82.77l88.524-88.524 101.36 101.8a44.262 44.262 0 0 0 62.852 0l97.819-100.47 101.36 101.8a44.262 44.262 0 0 0 62.852 0l101.36-101.8 71.262 70.377a309.83 309.83 0 0 0 27.885-97.376z" fill="#cecece"/><path d="m500.11 1044.5a163.33 163.33 0 0 1-146.95-103.57l-3.9836-9.295a47.36 47.36 0 0 1 18.147-59.311 36.737 36.737 0 0 1 52.229 19.475l3.9836 9.295a81.885 81.885 0 0 0 154.92 0l3.9836-9.295a36.737 36.737 0 0 1 50.459-19.475 47.36 47.36 0 0 1 17.262 59.311l-3.9836 9.295a163.33 163.33 0 0 1-146.06 103.57z" fill="#90837c"/><path d="m500.11 1000.2a186.79 186.79 0 0 1-167.75-103.57l-4.4262-9.295a44.262 44.262 0 0 1 78.786-39.836l4.8688 9.295a98.704 98.704 0 0 0 177.05 0l4.8688-9.295a44.262 44.262 0 1 1 78.786 39.836l-4.4262 9.295a186.79 186.79 0 0 1-167.75 103.57z" fill="#48423e"/><path d="m234.54 937.78-101.36-101.8a44.262 44.262 0 0 0-62.852 0l-67.721 67.721a309.83 309.83 0 0 0 27.885 96.491l71.262-70.377 101.36 101.8a44.262 44.262 0 0 0 62.852 0l14.606-14.606a609.05 609.05 0 0 1-44.262-82.77z" fill="#aeaeae"/></g><path d="m501.81 952.51c91.651 0 152.44 10.663 227.66 25.283 17.176 3.2978 50.594 0 50.594-50.594 0-101.19-116.25-227.66-278.25-227.66-162 0-278.25 126.47-278.25 227.66 0 50.594 33.418 53.919 50.594 50.594 75.19-14.62 136.01-25.283 227.66-25.283zm327.03-273.36c-2.968-2.226-50.099-37.018-120.59-60.844 0.71453-2.968 1.2092-6.046 1.2092-9.2338 0-9.5911-3.6001-18.248-9.3163-25.008 46.801-13.521 86.54-13.906 87.254-13.906 14.29-0.0275 25.915-11.68 25.888-25.998-0.0277-14.318-11.597-25.915-25.943-25.915-5.7161 0-141.48 0.98934-225.98 85.468-7.4201 7.4201-9.6461 18.578-5.6338 28.279 4.0123 9.701 13.494 16.022 23.964 16.022 119.13 0 217.08 71.947 218.07 72.689 4.6719 3.4627 10.113 5.1391 15.5 5.1391 7.9148 0 15.72-3.6001 20.804-10.388 8.5468-11.487 6.2108-27.702-5.2215-36.303zm-386.56-75.465c-84.479-84.506-220.24-85.468-225.98-85.468-14.318 0-25.915 11.597-25.943 25.915-0.0275 14.318 11.57 25.943 25.888 25.998 0.68704 0 40.453 0.41223 87.227 13.906-5.7162 6.788-9.3163 15.445-9.3163 25.008 0 3.1879 0.49467 6.2658 1.2092 9.2339-70.491 23.827-117.65 58.618-120.62 60.844-11.46 8.6018-13.796 24.871-5.194 36.331 5.0841 6.8155 12.889 10.388 20.776 10.388 5.4139 0 10.883-1.7039 15.555-5.194 0.96186-0.71452 98.275-72.662 218.01-72.662 10.498 0 19.952-6.3208 23.964-16.022 4.0673-9.701 1.8688-20.831-5.5788-28.279z" fill="#48423e" stroke-width="27.482"/><path d="m713.75 1094.1v-195.15c0-71.26-106.88-142.49-213.75-142.49-106.88 0-213.75 71.26-213.75 142.49v195.15c-121 9.5911-202.24 27.07-202.24 47.076 0 30.367 186.24 54.963 415.99 54.963 229.75 0 415.99-24.596 415.99-54.963 0-20.007-81.236-37.485-202.24-47.076z" fill="#77af57" stroke-width="27.482"/><g fill="#5d8f3f" stroke-width="27.482"><circle cx="443.41" cy="845.11" r="33.94"/><circle cx="575.96" cy="911.4" r="33.94"/><circle transform="rotate(-80.781)" cx="-937.22" cy="750.51" r="33.94"/><circle transform="rotate(-80.781)" cx="-1019.4" cy="593.28" r="48.505"/></g></svg>
